<?xml version="1.0" encoding="UTF-8"?>
<svg xmlns="http://www.w3.org/2000/svg" xmlns:xlink="http://www.w3.org/1999/xlink" width="735px" height="500px" viewBox="0 0 734 500" version="1.1">
<defs>
<filter id="alpha" filterUnits="objectBoundingBox" x="0%" y="0%" width="100%" height="100%">
  <feColorMatrix type="matrix" in="SourceGraphic" values="0 0 0 0 1 0 0 0 0 1 0 0 0 0 1 0 0 0 1 0"/>
</filter>
<mask id="mask0">
  <g filter="url(#alpha)">
<rect x="0" y="0" width="734" height="500" style="fill:rgb(0%,0%,0%);fill-opacity:0.101961;stroke:none;"/>
  </g>
</mask>
<clipPath id="clip1">
  <rect x="0" y="0" width="734" height="500"/>
</clipPath>
<g id="surface5" clip-path="url(#clip1)">
<path style=" stroke:none;fill-rule:nonzero;fill:rgb(0%,0%,0%);fill-opacity:1;" d="M 334.246094 309.832031 C 334.246094 309.832031 325.792969 286.558594 326.496094 282.328125 C 327.199219 278.09375 325.085938 269.632812 325.085938 269.632812 L 322.269531 212.511719 C 322.269531 212.511719 334.246094 161.734375 307.476562 153.273438 C 307.476562 153.273438 300.703125 156.230469 295.152344 165.753906 C 289.667969 168.199219 283.007812 174.394531 281.414062 189.941406 C 278.597656 217.445312 291.277344 287.96875 297.613281 299.957031 C 303.953125 311.945312 308.179688 320.410156 308.179688 320.410156 L 314.808594 317.460938 C 315.082031 318.003906 315.226562 318.292969 315.226562 318.292969 Z M 334.246094 309.832031 "/>
</g>
</defs>
<g id="surface1">
<path style=" stroke:none;fill-rule:nonzero;fill:rgb(24.705882%,23.921569%,33.72549%);fill-opacity:1;" d="M 0 0 L 616.363281 0 L 616.363281 331.929688 L 0 331.929688 Z M 0 0 "/>
<path style=" stroke:none;fill-rule:nonzero;fill:rgb(47.45098%,47.45098%,61.176471%);fill-opacity:1;" d="M 111.421875 46.796875 L 116.859375 46.796875 L 116.859375 55.503906 L 111.421875 55.503906 Z M 111.421875 46.796875 "/>
<path style=" stroke:none;fill-rule:nonzero;fill:rgb(47.45098%,47.45098%,61.176471%);fill-opacity:1;" d="M 129.902344 44.621094 L 135.339844 44.621094 L 135.339844 53.328125 L 129.902344 53.328125 Z M 129.902344 44.621094 "/>
<path style=" stroke:none;fill-rule:nonzero;fill:rgb(47.45098%,47.45098%,61.176471%);fill-opacity:1;" d="M 139.6875 44.621094 L 145.121094 44.621094 L 145.121094 53.328125 L 139.6875 53.328125 Z M 139.6875 44.621094 "/>
<path style=" stroke:none;fill-rule:nonzero;fill:rgb(47.45098%,47.45098%,61.176471%);fill-opacity:1;" d="M 139.6875 70.738281 L 145.121094 70.738281 L 145.121094 79.445312 L 139.6875 79.445312 Z M 139.6875 70.738281 "/>
<path style=" stroke:none;fill-rule:nonzero;fill:rgb(47.45098%,47.45098%,61.176471%);fill-opacity:1;" d="M 150.558594 57.679688 L 155.992188 57.679688 L 155.992188 66.386719 L 150.558594 66.386719 Z M 150.558594 57.679688 "/>
<path style=" stroke:none;fill-rule:nonzero;fill:rgb(47.45098%,47.45098%,61.176471%);fill-opacity:1;" d="M 150.558594 71.828125 L 155.992188 71.828125 L 155.992188 80.535156 L 150.558594 80.535156 Z M 150.558594 71.828125 "/>
<path style=" stroke:none;fill-rule:nonzero;fill:rgb(47.45098%,47.45098%,61.176471%);fill-opacity:1;" d="M 139.6875 99.035156 L 145.121094 99.035156 L 145.121094 107.742188 L 139.6875 107.742188 Z M 139.6875 99.035156 "/>
<path style=" stroke:none;fill-rule:nonzero;fill:rgb(47.45098%,47.45098%,61.176471%);fill-opacity:1;" d="M 150.558594 113.183594 L 155.992188 113.183594 L 155.992188 121.890625 L 150.558594 121.890625 Z M 150.558594 113.183594 "/>
<path style=" stroke:none;fill-rule:nonzero;fill:rgb(47.45098%,47.45098%,61.176471%);fill-opacity:1;" d="M 139.6875 166.511719 L 145.121094 166.511719 L 145.121094 175.214844 L 139.6875 175.214844 Z M 139.6875 166.511719 "/>
<path style=" stroke:none;fill-rule:nonzero;fill:rgb(47.45098%,47.45098%,61.176471%);fill-opacity:1;" d="M 129.902344 113.183594 L 135.339844 113.183594 L 135.339844 121.890625 L 129.902344 121.890625 Z M 129.902344 113.183594 "/>
<path style=" stroke:none;fill-rule:nonzero;fill:rgb(47.45098%,47.45098%,61.176471%);fill-opacity:1;" d="M 111.421875 60.945312 L 116.859375 60.945312 L 116.859375 69.652344 L 111.421875 69.652344 Z M 111.421875 60.945312 "/>
<path style=" stroke:none;fill-rule:nonzero;fill:rgb(47.45098%,47.45098%,61.176471%);fill-opacity:1;" d="M 111.421875 196.980469 L 116.859375 196.980469 L 116.859375 205.6875 L 111.421875 205.6875 Z M 111.421875 196.980469 "/>
<path style=" stroke:none;fill-rule:nonzero;fill:rgb(47.45098%,47.45098%,61.176471%);fill-opacity:1;" d="M 111.421875 225.277344 L 116.859375 225.277344 L 116.859375 233.984375 L 111.421875 233.984375 Z M 111.421875 225.277344 "/>
<path style=" stroke:none;fill-rule:nonzero;fill:rgb(47.45098%,47.45098%,61.176471%);fill-opacity:1;" d="M 111.421875 239.425781 L 116.859375 239.425781 L 116.859375 248.132812 L 111.421875 248.132812 Z M 111.421875 239.425781 "/>
<path style=" stroke:none;fill-rule:nonzero;fill:rgb(47.45098%,47.45098%,61.176471%);fill-opacity:1;" d="M 109.25 76.179688 L 116.859375 76.179688 L 116.859375 77.269531 L 109.25 77.269531 Z M 109.25 76.179688 "/>
<path style=" stroke:none;fill-rule:nonzero;fill:rgb(47.45098%,47.45098%,61.176471%);fill-opacity:1;" d="M 138.601562 89.242188 L 146.210938 89.242188 L 146.210938 90.328125 L 138.601562 90.328125 Z M 138.601562 89.242188 "/>
<path style=" stroke:none;fill-rule:nonzero;fill:rgb(47.45098%,47.45098%,61.176471%);fill-opacity:1;" d="M 109.25 145.832031 L 116.859375 145.832031 L 116.859375 146.921875 L 109.25 146.921875 Z M 109.25 145.832031 "/>
<path style=" stroke:none;fill-rule:nonzero;fill:rgb(47.45098%,47.45098%,61.176471%);fill-opacity:1;" d="M 109.25 157.804688 L 116.859375 157.804688 L 116.859375 158.890625 L 109.25 158.890625 Z M 109.25 157.804688 "/>
<path style=" stroke:none;fill-rule:nonzero;fill:rgb(47.45098%,47.45098%,61.176471%);fill-opacity:1;" d="M 138.601562 227.453125 L 146.210938 227.453125 L 146.210938 228.542969 L 138.601562 228.542969 Z M 138.601562 227.453125 "/>
<path style=" stroke:none;fill-rule:nonzero;fill:rgb(47.45098%,47.45098%,61.176471%);fill-opacity:1;" d="M 129.902344 253.574219 L 137.511719 253.574219 L 137.511719 254.664062 L 129.902344 254.664062 Z M 129.902344 253.574219 "/>
<path style=" stroke:none;fill-rule:nonzero;fill:rgb(47.45098%,47.45098%,61.176471%);fill-opacity:1;" d="M 111.421875 85.976562 L 111.421875 88.152344 L 113.597656 88.152344 L 113.597656 92.503906 L 111.421875 92.503906 L 111.421875 94.683594 L 116.859375 94.683594 L 116.859375 85.976562 Z M 111.421875 85.976562 "/>
<path style=" stroke:none;fill-rule:nonzero;fill:rgb(47.45098%,47.45098%,61.176471%);fill-opacity:1;" d="M 129.902344 70.738281 L 129.902344 72.917969 L 132.078125 72.917969 L 132.078125 77.269531 L 129.902344 77.269531 L 129.902344 79.445312 L 135.339844 79.445312 L 135.339844 70.738281 Z M 129.902344 70.738281 "/>
<path style=" stroke:none;fill-rule:nonzero;fill:rgb(47.45098%,47.45098%,61.176471%);fill-opacity:1;" d="M 150.558594 84.886719 L 150.558594 87.0625 L 152.730469 87.0625 L 152.730469 91.417969 L 150.558594 91.417969 L 150.558594 93.59375 L 155.992188 93.59375 L 155.992188 84.886719 Z M 150.558594 84.886719 "/>
<path style=" stroke:none;fill-rule:nonzero;fill:rgb(47.45098%,47.45098%,61.176471%);fill-opacity:1;" d="M 150.558594 127.332031 L 150.558594 129.507812 L 152.730469 129.507812 L 152.730469 133.859375 L 150.558594 133.859375 L 150.558594 136.039062 L 155.992188 136.039062 L 155.992188 127.332031 Z M 150.558594 127.332031 "/>
<path style=" stroke:none;fill-rule:nonzero;fill:rgb(47.45098%,47.45098%,61.176471%);fill-opacity:1;" d="M 150.558594 141.480469 L 150.558594 143.65625 L 152.730469 143.65625 L 152.730469 148.007812 L 150.558594 148.007812 L 150.558594 150.183594 L 155.992188 150.183594 L 155.992188 141.480469 Z M 150.558594 141.480469 "/>
<path style=" stroke:none;fill-rule:nonzero;fill:rgb(47.45098%,47.45098%,61.176471%);fill-opacity:1;" d="M 150.558594 97.945312 L 150.558594 100.125 L 152.730469 100.125 L 152.730469 104.476562 L 150.558594 104.476562 L 150.558594 106.652344 L 155.992188 106.652344 L 155.992188 97.945312 Z M 150.558594 97.945312 "/>
<path style=" stroke:none;fill-rule:nonzero;fill:rgb(47.45098%,47.45098%,61.176471%);fill-opacity:1;" d="M 139.6875 57.679688 L 139.6875 59.855469 L 141.863281 59.855469 L 141.863281 64.210938 L 139.6875 64.210938 L 139.6875 66.386719 L 145.121094 66.386719 L 145.121094 57.679688 Z M 139.6875 57.679688 "/>
<path style=" stroke:none;fill-rule:nonzero;fill:rgb(47.45098%,47.45098%,61.176471%);fill-opacity:1;" d="M 139.6875 127.332031 L 145.121094 127.332031 L 145.121094 136.039062 L 139.6875 136.039062 Z M 139.6875 127.332031 "/>
<path style=" stroke:none;fill-rule:nonzero;fill:rgb(47.45098%,47.45098%,61.176471%);fill-opacity:1;" d="M 139.6875 153.449219 L 145.121094 153.449219 L 145.121094 162.15625 L 139.6875 162.15625 Z M 139.6875 153.449219 "/>
<path style=" stroke:none;fill-rule:nonzero;fill:rgb(47.45098%,47.45098%,61.176471%);fill-opacity:1;" d="M 139.6875 140.390625 L 139.6875 142.566406 L 141.863281 142.566406 L 141.863281 146.921875 L 139.6875 146.921875 L 139.6875 149.097656 L 145.121094 149.097656 L 145.121094 140.390625 Z M 139.6875 140.390625 "/>
<path style=" stroke:none;fill-rule:nonzero;fill:rgb(47.45098%,47.45098%,61.176471%);fill-opacity:1;" d="M 129.902344 84.886719 L 129.902344 87.0625 L 132.078125 87.0625 L 132.078125 91.417969 L 129.902344 91.417969 L 129.902344 93.59375 L 135.339844 93.59375 L 135.339844 84.886719 Z M 129.902344 84.886719 "/>
<path style=" stroke:none;fill-rule:nonzero;fill:rgb(47.45098%,47.45098%,61.176471%);fill-opacity:1;" d="M 129.902344 99.035156 L 129.902344 101.210938 L 132.078125 101.210938 L 132.078125 105.566406 L 129.902344 105.566406 L 129.902344 107.742188 L 135.339844 107.742188 L 135.339844 99.035156 Z M 129.902344 99.035156 "/>
<path style=" stroke:none;fill-rule:nonzero;fill:rgb(47.45098%,47.45098%,61.176471%);fill-opacity:1;" d="M 129.902344 141.480469 L 135.339844 141.480469 L 135.339844 150.183594 L 129.902344 150.183594 Z M 129.902344 141.480469 "/>
<path style=" stroke:none;fill-rule:nonzero;fill:rgb(47.45098%,47.45098%,61.176471%);fill-opacity:1;" d="M 129.902344 127.332031 L 129.902344 129.507812 L 132.078125 129.507812 L 132.078125 133.859375 L 129.902344 133.859375 L 129.902344 136.039062 L 135.339844 136.039062 L 135.339844 127.332031 Z M 129.902344 127.332031 "/>
<path style=" stroke:none;fill-rule:nonzero;fill:rgb(47.45098%,47.45098%,61.176471%);fill-opacity:1;" d="M 129.902344 169.773438 L 135.339844 169.773438 L 135.339844 178.480469 L 129.902344 178.480469 Z M 129.902344 169.773438 "/>
<path style=" stroke:none;fill-rule:nonzero;fill:rgb(47.45098%,47.45098%,61.176471%);fill-opacity:1;" d="M 129.902344 155.625 L 129.902344 157.804688 L 132.078125 157.804688 L 132.078125 162.15625 L 129.902344 162.15625 L 129.902344 164.332031 L 135.339844 164.332031 L 135.339844 155.625 Z M 129.902344 155.625 "/>
<path style=" stroke:none;fill-rule:nonzero;fill:rgb(47.45098%,47.45098%,61.176471%);fill-opacity:1;" d="M 129.902344 198.070312 L 135.339844 198.070312 L 135.339844 206.777344 L 129.902344 206.777344 Z M 129.902344 198.070312 "/>
<path style=" stroke:none;fill-rule:nonzero;fill:rgb(47.45098%,47.45098%,61.176471%);fill-opacity:1;" d="M 139.6875 195.894531 L 145.121094 195.894531 L 145.121094 204.601562 L 139.6875 204.601562 Z M 139.6875 195.894531 "/>
<path style=" stroke:none;fill-rule:nonzero;fill:rgb(47.45098%,47.45098%,61.176471%);fill-opacity:1;" d="M 129.902344 183.921875 L 129.902344 186.097656 L 132.078125 186.097656 L 132.078125 190.453125 L 129.902344 190.453125 L 129.902344 192.628906 L 135.339844 192.628906 L 135.339844 183.921875 Z M 129.902344 183.921875 "/>
<path style=" stroke:none;fill-rule:nonzero;fill:rgb(47.45098%,47.45098%,61.176471%);fill-opacity:1;" d="M 150.558594 183.921875 L 150.558594 186.097656 L 152.730469 186.097656 L 152.730469 190.453125 L 150.558594 190.453125 L 150.558594 192.628906 L 155.992188 192.628906 L 155.992188 183.921875 Z M 150.558594 183.921875 "/>
<path style=" stroke:none;fill-rule:nonzero;fill:rgb(47.45098%,47.45098%,61.176471%);fill-opacity:1;" d="M 205.996094 57.679688 L 211.433594 57.679688 L 211.433594 66.386719 L 205.996094 66.386719 Z M 205.996094 57.679688 "/>
<path style=" stroke:none;fill-rule:nonzero;fill:rgb(47.45098%,47.45098%,61.176471%);fill-opacity:1;" d="M 205.996094 71.828125 L 211.433594 71.828125 L 211.433594 80.535156 L 205.996094 80.535156 Z M 205.996094 71.828125 "/>
<path style=" stroke:none;fill-rule:nonzero;fill:rgb(47.45098%,47.45098%,61.176471%);fill-opacity:1;" d="M 205.996094 113.183594 L 211.433594 113.183594 L 211.433594 121.890625 L 205.996094 121.890625 Z M 205.996094 113.183594 "/>
<path style=" stroke:none;fill-rule:nonzero;fill:rgb(47.45098%,47.45098%,61.176471%);fill-opacity:1;" d="M 205.996094 84.886719 L 205.996094 87.0625 L 208.171875 87.0625 L 208.171875 91.417969 L 205.996094 91.417969 L 205.996094 93.59375 L 211.433594 93.59375 L 211.433594 84.886719 Z M 205.996094 84.886719 "/>
<path style=" stroke:none;fill-rule:nonzero;fill:rgb(47.45098%,47.45098%,61.176471%);fill-opacity:1;" d="M 205.996094 127.332031 L 205.996094 129.507812 L 208.171875 129.507812 L 208.171875 133.859375 L 205.996094 133.859375 L 205.996094 136.039062 L 211.433594 136.039062 L 211.433594 127.332031 Z M 205.996094 127.332031 "/>
<path style=" stroke:none;fill-rule:nonzero;fill:rgb(47.45098%,47.45098%,61.176471%);fill-opacity:1;" d="M 205.996094 141.480469 L 205.996094 143.65625 L 208.171875 143.65625 L 208.171875 148.007812 L 205.996094 148.007812 L 205.996094 150.183594 L 211.433594 150.183594 L 211.433594 141.480469 Z M 205.996094 141.480469 "/>
<path style=" stroke:none;fill-rule:nonzero;fill:rgb(47.45098%,47.45098%,61.176471%);fill-opacity:1;" d="M 205.996094 97.945312 L 205.996094 100.125 L 208.171875 100.125 L 208.171875 104.476562 L 205.996094 104.476562 L 205.996094 106.652344 L 211.433594 106.652344 L 211.433594 97.945312 Z M 205.996094 97.945312 "/>
<path style=" stroke:none;fill-rule:nonzero;fill:rgb(47.45098%,47.45098%,61.176471%);fill-opacity:1;" d="M 205.996094 183.921875 L 205.996094 186.097656 L 208.171875 186.097656 L 208.171875 190.453125 L 205.996094 190.453125 L 205.996094 192.628906 L 211.433594 192.628906 L 211.433594 183.921875 Z M 205.996094 183.921875 "/>
<path style=" stroke:none;fill-rule:nonzero;fill:rgb(47.45098%,47.45098%,61.176471%);fill-opacity:1;" d="M 129.902344 226.367188 L 135.339844 226.367188 L 135.339844 235.074219 L 129.902344 235.074219 Z M 129.902344 226.367188 "/>
<path style=" stroke:none;fill-rule:nonzero;fill:rgb(47.45098%,47.45098%,61.176471%);fill-opacity:1;" d="M 139.6875 210.042969 L 145.121094 210.042969 L 145.121094 218.75 L 139.6875 218.75 Z M 139.6875 210.042969 "/>
<path style=" stroke:none;fill-rule:nonzero;fill:rgb(47.45098%,47.45098%,61.176471%);fill-opacity:1;" d="M 129.902344 263.367188 L 135.339844 263.367188 L 135.339844 272.074219 L 129.902344 272.074219 Z M 129.902344 263.367188 "/>
<path style=" stroke:none;fill-rule:nonzero;fill:rgb(47.45098%,47.45098%,61.176471%);fill-opacity:1;" d="M 139.6875 237.25 L 145.121094 237.25 L 145.121094 245.957031 L 139.6875 245.957031 Z M 139.6875 237.25 "/>
<path style=" stroke:none;fill-rule:nonzero;fill:rgb(47.45098%,47.45098%,61.176471%);fill-opacity:1;" d="M 129.902344 212.21875 L 129.902344 214.394531 L 132.078125 214.394531 L 132.078125 218.75 L 129.902344 218.75 L 129.902344 220.925781 L 135.339844 220.925781 L 135.339844 212.21875 Z M 129.902344 212.21875 "/>
<path style=" stroke:none;fill-rule:nonzero;fill:rgb(47.45098%,47.45098%,61.176471%);fill-opacity:1;" d="M 129.902344 278.605469 L 129.902344 280.78125 L 132.078125 280.78125 L 132.078125 285.132812 L 129.902344 285.132812 L 129.902344 287.3125 L 135.339844 287.3125 L 135.339844 278.605469 Z M 129.902344 278.605469 "/>
<path style=" stroke:none;fill-rule:nonzero;fill:rgb(47.45098%,47.45098%,61.176471%);fill-opacity:1;" d="M 189.691406 44.621094 L 195.128906 44.621094 L 195.128906 53.328125 L 189.691406 53.328125 Z M 189.691406 44.621094 "/>
<path style=" stroke:none;fill-rule:nonzero;fill:rgb(47.45098%,47.45098%,61.176471%);fill-opacity:1;" d="M 189.691406 113.183594 L 195.128906 113.183594 L 195.128906 121.890625 L 189.691406 121.890625 Z M 189.691406 113.183594 "/>
<path style=" stroke:none;fill-rule:nonzero;fill:rgb(47.45098%,47.45098%,61.176471%);fill-opacity:1;" d="M 189.691406 253.574219 L 197.300781 253.574219 L 197.300781 254.664062 L 189.691406 254.664062 Z M 189.691406 253.574219 "/>
<path style=" stroke:none;fill-rule:nonzero;fill:rgb(47.45098%,47.45098%,61.176471%);fill-opacity:1;" d="M 189.691406 70.738281 L 189.691406 72.917969 L 191.867188 72.917969 L 191.867188 77.269531 L 189.691406 77.269531 L 189.691406 79.445312 L 195.128906 79.445312 L 195.128906 70.738281 Z M 189.691406 70.738281 "/>
<path style=" stroke:none;fill-rule:nonzero;fill:rgb(47.45098%,47.45098%,61.176471%);fill-opacity:1;" d="M 189.691406 84.886719 L 189.691406 87.0625 L 191.867188 87.0625 L 191.867188 91.417969 L 189.691406 91.417969 L 189.691406 93.59375 L 195.128906 93.59375 L 195.128906 84.886719 Z M 189.691406 84.886719 "/>
<path style=" stroke:none;fill-rule:nonzero;fill:rgb(47.45098%,47.45098%,61.176471%);fill-opacity:1;" d="M 189.691406 99.035156 L 189.691406 101.210938 L 191.867188 101.210938 L 191.867188 105.566406 L 189.691406 105.566406 L 189.691406 107.742188 L 195.128906 107.742188 L 195.128906 99.035156 Z M 189.691406 99.035156 "/>
<path style=" stroke:none;fill-rule:nonzero;fill:rgb(47.45098%,47.45098%,61.176471%);fill-opacity:1;" d="M 189.691406 141.480469 L 195.128906 141.480469 L 195.128906 150.183594 L 189.691406 150.183594 Z M 189.691406 141.480469 "/>
<path style=" stroke:none;fill-rule:nonzero;fill:rgb(47.45098%,47.45098%,61.176471%);fill-opacity:1;" d="M 189.691406 127.332031 L 189.691406 129.507812 L 191.867188 129.507812 L 191.867188 133.859375 L 189.691406 133.859375 L 189.691406 136.039062 L 195.128906 136.039062 L 195.128906 127.332031 Z M 189.691406 127.332031 "/>
<path style=" stroke:none;fill-rule:nonzero;fill:rgb(47.45098%,47.45098%,61.176471%);fill-opacity:1;" d="M 189.691406 169.773438 L 195.128906 169.773438 L 195.128906 178.480469 L 189.691406 178.480469 Z M 189.691406 169.773438 "/>
<path style=" stroke:none;fill-rule:nonzero;fill:rgb(47.45098%,47.45098%,61.176471%);fill-opacity:1;" d="M 189.691406 155.625 L 189.691406 157.804688 L 191.867188 157.804688 L 191.867188 162.15625 L 189.691406 162.15625 L 189.691406 164.332031 L 195.128906 164.332031 L 195.128906 155.625 Z M 189.691406 155.625 "/>
<path style=" stroke:none;fill-rule:nonzero;fill:rgb(47.45098%,47.45098%,61.176471%);fill-opacity:1;" d="M 189.691406 198.070312 L 195.128906 198.070312 L 195.128906 206.777344 L 189.691406 206.777344 Z M 189.691406 198.070312 "/>
<path style=" stroke:none;fill-rule:nonzero;fill:rgb(47.45098%,47.45098%,61.176471%);fill-opacity:1;" d="M 189.691406 183.921875 L 189.691406 186.097656 L 191.867188 186.097656 L 191.867188 190.453125 L 189.691406 190.453125 L 189.691406 192.628906 L 195.128906 192.628906 L 195.128906 183.921875 Z M 189.691406 183.921875 "/>
<path style=" stroke:none;fill-rule:nonzero;fill:rgb(47.45098%,47.45098%,61.176471%);fill-opacity:1;" d="M 189.691406 226.367188 L 195.128906 226.367188 L 195.128906 235.074219 L 189.691406 235.074219 Z M 189.691406 226.367188 "/>
<path style=" stroke:none;fill-rule:nonzero;fill:rgb(47.45098%,47.45098%,61.176471%);fill-opacity:1;" d="M 189.691406 263.367188 L 195.128906 263.367188 L 195.128906 272.074219 L 189.691406 272.074219 Z M 189.691406 263.367188 "/>
<path style=" stroke:none;fill-rule:nonzero;fill:rgb(47.45098%,47.45098%,61.176471%);fill-opacity:1;" d="M 189.691406 212.21875 L 189.691406 214.394531 L 191.867188 214.394531 L 191.867188 218.75 L 189.691406 218.75 L 189.691406 220.925781 L 195.128906 220.925781 L 195.128906 212.21875 Z M 189.691406 212.21875 "/>
<path style=" stroke:none;fill-rule:nonzero;fill:rgb(47.45098%,47.45098%,61.176471%);fill-opacity:1;" d="M 189.691406 278.605469 L 189.691406 280.78125 L 191.867188 280.78125 L 191.867188 285.132812 L 189.691406 285.132812 L 189.691406 287.3125 L 195.128906 287.3125 L 195.128906 278.605469 Z M 189.691406 278.605469 "/>
<path style=" stroke:none;fill-rule:nonzero;fill:rgb(47.45098%,47.45098%,61.176471%);fill-opacity:1;" d="M 215.78125 44.621094 L 221.214844 44.621094 L 221.214844 53.328125 L 215.78125 53.328125 Z M 215.78125 44.621094 "/>
<path style=" stroke:none;fill-rule:nonzero;fill:rgb(47.45098%,47.45098%,61.176471%);fill-opacity:1;" d="M 215.78125 113.183594 L 221.214844 113.183594 L 221.214844 121.890625 L 215.78125 121.890625 Z M 215.78125 113.183594 "/>
<path style=" stroke:none;fill-rule:nonzero;fill:rgb(47.45098%,47.45098%,61.176471%);fill-opacity:1;" d="M 215.78125 253.574219 L 223.390625 253.574219 L 223.390625 254.664062 L 215.78125 254.664062 Z M 215.78125 253.574219 "/>
<path style=" stroke:none;fill-rule:nonzero;fill:rgb(47.45098%,47.45098%,61.176471%);fill-opacity:1;" d="M 215.78125 70.738281 L 215.78125 72.917969 L 217.957031 72.917969 L 217.957031 77.269531 L 215.78125 77.269531 L 215.78125 79.445312 L 221.214844 79.445312 L 221.214844 70.738281 Z M 215.78125 70.738281 "/>
<path style=" stroke:none;fill-rule:nonzero;fill:rgb(47.45098%,47.45098%,61.176471%);fill-opacity:1;" d="M 215.78125 84.886719 L 215.78125 87.0625 L 217.957031 87.0625 L 217.957031 91.417969 L 215.78125 91.417969 L 215.78125 93.59375 L 221.214844 93.59375 L 221.214844 84.886719 Z M 215.78125 84.886719 "/>
<path style=" stroke:none;fill-rule:nonzero;fill:rgb(47.45098%,47.45098%,61.176471%);fill-opacity:1;" d="M 215.78125 99.035156 L 215.78125 101.210938 L 217.957031 101.210938 L 217.957031 105.566406 L 215.78125 105.566406 L 215.78125 107.742188 L 221.214844 107.742188 L 221.214844 99.035156 Z M 215.78125 99.035156 "/>
<path style=" stroke:none;fill-rule:nonzero;fill:rgb(47.45098%,47.45098%,61.176471%);fill-opacity:1;" d="M 215.78125 141.480469 L 221.214844 141.480469 L 221.214844 150.183594 L 215.78125 150.183594 Z M 215.78125 141.480469 "/>
<path style=" stroke:none;fill-rule:nonzero;fill:rgb(47.45098%,47.45098%,61.176471%);fill-opacity:1;" d="M 215.78125 127.332031 L 215.78125 129.507812 L 217.957031 129.507812 L 217.957031 133.859375 L 215.78125 133.859375 L 215.78125 136.039062 L 221.214844 136.039062 L 221.214844 127.332031 Z M 215.78125 127.332031 "/>
<path style=" stroke:none;fill-rule:nonzero;fill:rgb(47.45098%,47.45098%,61.176471%);fill-opacity:1;" d="M 215.78125 169.773438 L 221.214844 169.773438 L 221.214844 178.480469 L 215.78125 178.480469 Z M 215.78125 169.773438 "/>
<path style=" stroke:none;fill-rule:nonzero;fill:rgb(47.45098%,47.45098%,61.176471%);fill-opacity:1;" d="M 215.78125 155.625 L 215.78125 157.804688 L 217.957031 157.804688 L 217.957031 162.15625 L 215.78125 162.15625 L 215.78125 164.332031 L 221.214844 164.332031 L 221.214844 155.625 Z M 215.78125 155.625 "/>
<path style=" stroke:none;fill-rule:nonzero;fill:rgb(47.45098%,47.45098%,61.176471%);fill-opacity:1;" d="M 215.78125 198.070312 L 221.214844 198.070312 L 221.214844 206.777344 L 215.78125 206.777344 Z M 215.78125 198.070312 "/>
<path style=" stroke:none;fill-rule:nonzero;fill:rgb(47.45098%,47.45098%,61.176471%);fill-opacity:1;" d="M 215.78125 183.921875 L 215.78125 186.097656 L 217.957031 186.097656 L 217.957031 190.453125 L 215.78125 190.453125 L 215.78125 192.628906 L 221.214844 192.628906 L 221.214844 183.921875 Z M 215.78125 183.921875 "/>
<path style=" stroke:none;fill-rule:nonzero;fill:rgb(47.45098%,47.45098%,61.176471%);fill-opacity:1;" d="M 215.78125 226.367188 L 221.214844 226.367188 L 221.214844 235.074219 L 215.78125 235.074219 Z M 215.78125 226.367188 "/>
<path style=" stroke:none;fill-rule:nonzero;fill:rgb(47.45098%,47.45098%,61.176471%);fill-opacity:1;" d="M 215.78125 263.367188 L 221.214844 263.367188 L 221.214844 272.074219 L 215.78125 272.074219 Z M 215.78125 263.367188 "/>
<path style=" stroke:none;fill-rule:nonzero;fill:rgb(47.45098%,47.45098%,61.176471%);fill-opacity:1;" d="M 215.78125 212.21875 L 215.78125 214.394531 L 217.957031 214.394531 L 217.957031 218.75 L 215.78125 218.75 L 215.78125 220.925781 L 221.214844 220.925781 L 221.214844 212.21875 Z M 215.78125 212.21875 "/>
<path style=" stroke:none;fill-rule:nonzero;fill:rgb(47.45098%,47.45098%,61.176471%);fill-opacity:1;" d="M 215.78125 278.605469 L 215.78125 280.78125 L 217.957031 280.78125 L 217.957031 285.132812 L 215.78125 285.132812 L 215.78125 287.3125 L 221.214844 287.3125 L 221.214844 278.605469 Z M 215.78125 278.605469 "/>
<path style=" stroke:none;fill-rule:nonzero;fill:rgb(47.45098%,47.45098%,61.176471%);fill-opacity:1;" d="M 139.6875 263.367188 L 139.6875 265.546875 L 141.863281 265.546875 L 141.863281 269.898438 L 139.6875 269.898438 L 139.6875 272.074219 L 145.121094 272.074219 L 145.121094 263.367188 Z M 139.6875 263.367188 "/>
<path style=" stroke:none;fill-rule:nonzero;fill:rgb(47.45098%,47.45098%,61.176471%);fill-opacity:1;" d="M 139.6875 277.515625 L 139.6875 279.691406 L 141.863281 279.691406 L 141.863281 284.046875 L 139.6875 284.046875 L 139.6875 286.222656 L 145.121094 286.222656 L 145.121094 277.515625 Z M 139.6875 277.515625 "/>
<path style=" stroke:none;fill-rule:nonzero;fill:rgb(47.45098%,47.45098%,61.176471%);fill-opacity:1;" d="M 111.421875 113.183594 L 111.421875 115.359375 L 113.597656 115.359375 L 113.597656 119.714844 L 111.421875 119.714844 L 111.421875 121.890625 L 116.859375 121.890625 L 116.859375 113.183594 Z M 111.421875 113.183594 "/>
<path style=" stroke:none;fill-rule:nonzero;fill:rgb(47.45098%,47.45098%,61.176471%);fill-opacity:1;" d="M 111.421875 168.6875 L 111.421875 170.863281 L 113.597656 170.863281 L 113.597656 175.214844 L 111.421875 175.214844 L 111.421875 177.394531 L 116.859375 177.394531 L 116.859375 168.6875 Z M 111.421875 168.6875 "/>
<path style=" stroke:none;fill-rule:nonzero;fill:rgb(47.45098%,47.45098%,61.176471%);fill-opacity:1;" d="M 111.421875 182.835938 L 111.421875 185.011719 L 113.597656 185.011719 L 113.597656 189.363281 L 111.421875 189.363281 L 111.421875 191.539062 L 116.859375 191.539062 L 116.859375 182.835938 Z M 111.421875 182.835938 "/>
<path style=" stroke:none;fill-rule:nonzero;fill:rgb(47.45098%,47.45098%,61.176471%);fill-opacity:1;" d="M 111.421875 211.128906 L 111.421875 213.308594 L 113.597656 213.308594 L 113.597656 217.660156 L 111.421875 217.660156 L 111.421875 219.835938 L 116.859375 219.835938 L 116.859375 211.128906 Z M 111.421875 211.128906 "/>
<path style=" stroke:none;fill-rule:nonzero;fill:rgb(47.45098%,47.45098%,61.176471%);fill-opacity:1;" d="M 111.421875 251.398438 L 111.421875 253.574219 L 113.597656 253.574219 L 113.597656 257.925781 L 111.421875 257.925781 L 111.421875 260.105469 L 116.859375 260.105469 L 116.859375 251.398438 Z M 111.421875 251.398438 "/>
<path style=" stroke:none;fill-rule:nonzero;fill:rgb(47.45098%,47.45098%,61.176471%);fill-opacity:1;" d="M 111.421875 263.367188 L 111.421875 265.546875 L 113.597656 265.546875 L 113.597656 269.898438 L 111.421875 269.898438 L 111.421875 272.074219 L 116.859375 272.074219 L 116.859375 263.367188 Z M 111.421875 263.367188 "/>
<path style=" stroke:none;fill-rule:nonzero;fill:rgb(47.45098%,47.45098%,61.176471%);fill-opacity:1;" d="M 167.949219 46.796875 L 173.386719 46.796875 L 173.386719 55.503906 L 167.949219 55.503906 Z M 167.949219 46.796875 "/>
<path style=" stroke:none;fill-rule:nonzero;fill:rgb(47.45098%,47.45098%,61.176471%);fill-opacity:1;" d="M 167.949219 60.945312 L 173.386719 60.945312 L 173.386719 69.652344 L 167.949219 69.652344 Z M 167.949219 60.945312 "/>
<path style=" stroke:none;fill-rule:nonzero;fill:rgb(47.45098%,47.45098%,61.176471%);fill-opacity:1;" d="M 165.777344 76.179688 L 173.386719 76.179688 L 173.386719 77.269531 L 165.777344 77.269531 Z M 165.777344 76.179688 "/>
<path style=" stroke:none;fill-rule:nonzero;fill:rgb(47.45098%,47.45098%,61.176471%);fill-opacity:1;" d="M 165.777344 145.832031 L 173.386719 145.832031 L 173.386719 146.921875 L 165.777344 146.921875 Z M 165.777344 145.832031 "/>
<path style=" stroke:none;fill-rule:nonzero;fill:rgb(47.45098%,47.45098%,61.176471%);fill-opacity:1;" d="M 165.777344 157.804688 L 173.386719 157.804688 L 173.386719 158.890625 L 165.777344 158.890625 Z M 165.777344 157.804688 "/>
<path style=" stroke:none;fill-rule:nonzero;fill:rgb(47.45098%,47.45098%,61.176471%);fill-opacity:1;" d="M 167.949219 85.976562 L 167.949219 88.152344 L 170.125 88.152344 L 170.125 92.503906 L 167.949219 92.503906 L 167.949219 94.683594 L 173.386719 94.683594 L 173.386719 85.976562 Z M 167.949219 85.976562 "/>
<path style=" stroke:none;fill-rule:nonzero;fill:rgb(47.45098%,47.45098%,61.176471%);fill-opacity:1;" d="M 167.949219 113.183594 L 167.949219 115.359375 L 170.125 115.359375 L 170.125 119.714844 L 167.949219 119.714844 L 167.949219 121.890625 L 173.386719 121.890625 L 173.386719 113.183594 Z M 167.949219 113.183594 "/>
<path style=" stroke:none;fill-rule:nonzero;fill:rgb(47.45098%,47.45098%,61.176471%);fill-opacity:1;" d="M 167.949219 168.6875 L 167.949219 170.863281 L 170.125 170.863281 L 170.125 175.214844 L 167.949219 175.214844 L 167.949219 177.394531 L 173.386719 177.394531 L 173.386719 168.6875 Z M 167.949219 168.6875 "/>
<path style=" stroke:none;fill-rule:nonzero;fill:rgb(47.45098%,47.45098%,61.176471%);fill-opacity:1;" d="M 229.914062 141.480469 L 235.347656 141.480469 L 235.347656 150.183594 L 229.914062 150.183594 Z M 229.914062 141.480469 "/>
<path style=" stroke:none;fill-rule:nonzero;fill:rgb(47.45098%,47.45098%,61.176471%);fill-opacity:1;" d="M 229.914062 155.625 L 235.347656 155.625 L 235.347656 164.332031 L 229.914062 164.332031 Z M 229.914062 155.625 "/>
<path style=" stroke:none;fill-rule:nonzero;fill:rgb(47.45098%,47.45098%,61.176471%);fill-opacity:1;" d="M 227.738281 170.863281 L 235.347656 170.863281 L 235.347656 171.953125 L 227.738281 171.953125 Z M 227.738281 170.863281 "/>
<path style=" stroke:none;fill-rule:nonzero;fill:rgb(47.45098%,47.45098%,61.176471%);fill-opacity:1;" d="M 227.738281 240.515625 L 235.347656 240.515625 L 235.347656 241.601562 L 227.738281 241.601562 Z M 227.738281 240.515625 "/>
<path style=" stroke:none;fill-rule:nonzero;fill:rgb(47.45098%,47.45098%,61.176471%);fill-opacity:1;" d="M 227.738281 252.484375 L 235.347656 252.484375 L 235.347656 253.574219 L 227.738281 253.574219 Z M 227.738281 252.484375 "/>
<path style=" stroke:none;fill-rule:nonzero;fill:rgb(47.45098%,47.45098%,61.176471%);fill-opacity:1;" d="M 229.914062 180.65625 L 229.914062 182.835938 L 232.085938 182.835938 L 232.085938 187.1875 L 229.914062 187.1875 L 229.914062 189.363281 L 235.347656 189.363281 L 235.347656 180.65625 Z M 229.914062 180.65625 "/>
<path style=" stroke:none;fill-rule:nonzero;fill:rgb(47.45098%,47.45098%,61.176471%);fill-opacity:1;" d="M 229.914062 207.867188 L 229.914062 210.042969 L 232.085938 210.042969 L 232.085938 214.394531 L 229.914062 214.394531 L 229.914062 216.570312 L 235.347656 216.570312 L 235.347656 207.867188 Z M 229.914062 207.867188 "/>
<path style=" stroke:none;fill-rule:nonzero;fill:rgb(47.45098%,47.45098%,61.176471%);fill-opacity:1;" d="M 229.914062 263.367188 L 229.914062 265.546875 L 232.085938 265.546875 L 232.085938 269.898438 L 229.914062 269.898438 L 229.914062 272.074219 L 235.347656 272.074219 L 235.347656 263.367188 Z M 229.914062 263.367188 "/>
<path style=" stroke:none;fill-rule:nonzero;fill:rgb(47.45098%,47.45098%,61.176471%);fill-opacity:1;" d="M 247.304688 46.796875 L 252.742188 46.796875 L 252.742188 55.503906 L 247.304688 55.503906 Z M 247.304688 46.796875 "/>
<path style=" stroke:none;fill-rule:nonzero;fill:rgb(47.45098%,47.45098%,61.176471%);fill-opacity:1;" d="M 265.785156 44.621094 L 271.222656 44.621094 L 271.222656 53.328125 L 265.785156 53.328125 Z M 265.785156 44.621094 "/>
<path style=" stroke:none;fill-rule:nonzero;fill:rgb(47.45098%,47.45098%,61.176471%);fill-opacity:1;" d="M 275.570312 44.621094 L 281.003906 44.621094 L 281.003906 53.328125 L 275.570312 53.328125 Z M 275.570312 44.621094 "/>
<path style=" stroke:none;fill-rule:nonzero;fill:rgb(47.45098%,47.45098%,61.176471%);fill-opacity:1;" d="M 275.570312 70.738281 L 281.003906 70.738281 L 281.003906 79.445312 L 275.570312 79.445312 Z M 275.570312 70.738281 "/>
<path style=" stroke:none;fill-rule:nonzero;fill:rgb(47.45098%,47.45098%,61.176471%);fill-opacity:1;" d="M 286.441406 57.679688 L 291.875 57.679688 L 291.875 66.386719 L 286.441406 66.386719 Z M 286.441406 57.679688 "/>
<path style=" stroke:none;fill-rule:nonzero;fill:rgb(47.45098%,47.45098%,61.176471%);fill-opacity:1;" d="M 286.441406 71.828125 L 291.875 71.828125 L 291.875 80.535156 L 286.441406 80.535156 Z M 286.441406 71.828125 "/>
<path style=" stroke:none;fill-rule:nonzero;fill:rgb(47.45098%,47.45098%,61.176471%);fill-opacity:1;" d="M 275.570312 99.035156 L 281.003906 99.035156 L 281.003906 107.742188 L 275.570312 107.742188 Z M 275.570312 99.035156 "/>
<path style=" stroke:none;fill-rule:nonzero;fill:rgb(47.45098%,47.45098%,61.176471%);fill-opacity:1;" d="M 286.441406 113.183594 L 291.875 113.183594 L 291.875 121.890625 L 286.441406 121.890625 Z M 286.441406 113.183594 "/>
<path style=" stroke:none;fill-rule:nonzero;fill:rgb(47.45098%,47.45098%,61.176471%);fill-opacity:1;" d="M 275.570312 166.511719 L 281.003906 166.511719 L 281.003906 175.214844 L 275.570312 175.214844 Z M 275.570312 166.511719 "/>
<path style=" stroke:none;fill-rule:nonzero;fill:rgb(47.45098%,47.45098%,61.176471%);fill-opacity:1;" d="M 265.785156 113.183594 L 271.222656 113.183594 L 271.222656 121.890625 L 265.785156 121.890625 Z M 265.785156 113.183594 "/>
<path style=" stroke:none;fill-rule:nonzero;fill:rgb(47.45098%,47.45098%,61.176471%);fill-opacity:1;" d="M 247.304688 60.945312 L 252.742188 60.945312 L 252.742188 69.652344 L 247.304688 69.652344 Z M 247.304688 60.945312 "/>
<path style=" stroke:none;fill-rule:nonzero;fill:rgb(47.45098%,47.45098%,61.176471%);fill-opacity:1;" d="M 247.304688 196.980469 L 252.742188 196.980469 L 252.742188 205.6875 L 247.304688 205.6875 Z M 247.304688 196.980469 "/>
<path style=" stroke:none;fill-rule:nonzero;fill:rgb(47.45098%,47.45098%,61.176471%);fill-opacity:1;" d="M 247.304688 225.277344 L 252.742188 225.277344 L 252.742188 233.984375 L 247.304688 233.984375 Z M 247.304688 225.277344 "/>
<path style=" stroke:none;fill-rule:nonzero;fill:rgb(47.45098%,47.45098%,61.176471%);fill-opacity:1;" d="M 247.304688 239.425781 L 252.742188 239.425781 L 252.742188 248.132812 L 247.304688 248.132812 Z M 247.304688 239.425781 "/>
<path style=" stroke:none;fill-rule:nonzero;fill:rgb(47.45098%,47.45098%,61.176471%);fill-opacity:1;" d="M 245.132812 76.179688 L 252.742188 76.179688 L 252.742188 77.269531 L 245.132812 77.269531 Z M 245.132812 76.179688 "/>
<path style=" stroke:none;fill-rule:nonzero;fill:rgb(47.45098%,47.45098%,61.176471%);fill-opacity:1;" d="M 274.484375 89.242188 L 282.09375 89.242188 L 282.09375 90.328125 L 274.484375 90.328125 Z M 274.484375 89.242188 "/>
<path style=" stroke:none;fill-rule:nonzero;fill:rgb(47.45098%,47.45098%,61.176471%);fill-opacity:1;" d="M 245.132812 145.832031 L 252.742188 145.832031 L 252.742188 146.921875 L 245.132812 146.921875 Z M 245.132812 145.832031 "/>
<path style=" stroke:none;fill-rule:nonzero;fill:rgb(47.45098%,47.45098%,61.176471%);fill-opacity:1;" d="M 245.132812 157.804688 L 252.742188 157.804688 L 252.742188 158.890625 L 245.132812 158.890625 Z M 245.132812 157.804688 "/>
<path style=" stroke:none;fill-rule:nonzero;fill:rgb(47.45098%,47.45098%,61.176471%);fill-opacity:1;" d="M 274.484375 227.453125 L 282.09375 227.453125 L 282.09375 228.542969 L 274.484375 228.542969 Z M 274.484375 227.453125 "/>
<path style=" stroke:none;fill-rule:nonzero;fill:rgb(47.45098%,47.45098%,61.176471%);fill-opacity:1;" d="M 265.785156 253.574219 L 273.394531 253.574219 L 273.394531 254.664062 L 265.785156 254.664062 Z M 265.785156 253.574219 "/>
<path style=" stroke:none;fill-rule:nonzero;fill:rgb(47.45098%,47.45098%,61.176471%);fill-opacity:1;" d="M 247.304688 85.976562 L 247.304688 88.152344 L 249.480469 88.152344 L 249.480469 92.503906 L 247.304688 92.503906 L 247.304688 94.683594 L 252.742188 94.683594 L 252.742188 85.976562 Z M 247.304688 85.976562 "/>
<path style=" stroke:none;fill-rule:nonzero;fill:rgb(47.45098%,47.45098%,61.176471%);fill-opacity:1;" d="M 265.785156 70.738281 L 265.785156 72.917969 L 267.960938 72.917969 L 267.960938 77.269531 L 265.785156 77.269531 L 265.785156 79.445312 L 271.222656 79.445312 L 271.222656 70.738281 Z M 265.785156 70.738281 "/>
<path style=" stroke:none;fill-rule:nonzero;fill:rgb(47.45098%,47.45098%,61.176471%);fill-opacity:1;" d="M 286.441406 84.886719 L 286.441406 87.0625 L 288.613281 87.0625 L 288.613281 91.417969 L 286.441406 91.417969 L 286.441406 93.59375 L 291.875 93.59375 L 291.875 84.886719 Z M 286.441406 84.886719 "/>
<path style=" stroke:none;fill-rule:nonzero;fill:rgb(47.45098%,47.45098%,61.176471%);fill-opacity:1;" d="M 286.441406 127.332031 L 286.441406 129.507812 L 288.613281 129.507812 L 288.613281 133.859375 L 286.441406 133.859375 L 286.441406 136.039062 L 291.875 136.039062 L 291.875 127.332031 Z M 286.441406 127.332031 "/>
<path style=" stroke:none;fill-rule:nonzero;fill:rgb(47.45098%,47.45098%,61.176471%);fill-opacity:1;" d="M 286.441406 141.480469 L 286.441406 143.65625 L 288.613281 143.65625 L 288.613281 148.007812 L 286.441406 148.007812 L 286.441406 150.183594 L 291.875 150.183594 L 291.875 141.480469 Z M 286.441406 141.480469 "/>
<path style=" stroke:none;fill-rule:nonzero;fill:rgb(47.45098%,47.45098%,61.176471%);fill-opacity:1;" d="M 286.441406 97.945312 L 286.441406 100.125 L 288.613281 100.125 L 288.613281 104.476562 L 286.441406 104.476562 L 286.441406 106.652344 L 291.875 106.652344 L 291.875 97.945312 Z M 286.441406 97.945312 "/>
<path style=" stroke:none;fill-rule:nonzero;fill:rgb(47.45098%,47.45098%,61.176471%);fill-opacity:1;" d="M 275.570312 57.679688 L 275.570312 59.855469 L 277.742188 59.855469 L 277.742188 64.210938 L 275.570312 64.210938 L 275.570312 66.386719 L 281.003906 66.386719 L 281.003906 57.679688 Z M 275.570312 57.679688 "/>
<path style=" stroke:none;fill-rule:nonzero;fill:rgb(47.45098%,47.45098%,61.176471%);fill-opacity:1;" d="M 275.570312 127.332031 L 281.003906 127.332031 L 281.003906 136.039062 L 275.570312 136.039062 Z M 275.570312 127.332031 "/>
<path style=" stroke:none;fill-rule:nonzero;fill:rgb(47.45098%,47.45098%,61.176471%);fill-opacity:1;" d="M 275.570312 153.449219 L 281.003906 153.449219 L 281.003906 162.15625 L 275.570312 162.15625 Z M 275.570312 153.449219 "/>
<path style=" stroke:none;fill-rule:nonzero;fill:rgb(47.45098%,47.45098%,61.176471%);fill-opacity:1;" d="M 275.570312 140.390625 L 275.570312 142.566406 L 277.742188 142.566406 L 277.742188 146.921875 L 275.570312 146.921875 L 275.570312 149.097656 L 281.003906 149.097656 L 281.003906 140.390625 Z M 275.570312 140.390625 "/>
<path style=" stroke:none;fill-rule:nonzero;fill:rgb(47.45098%,47.45098%,61.176471%);fill-opacity:1;" d="M 265.785156 84.886719 L 265.785156 87.0625 L 267.960938 87.0625 L 267.960938 91.417969 L 265.785156 91.417969 L 265.785156 93.59375 L 271.222656 93.59375 L 271.222656 84.886719 Z M 265.785156 84.886719 "/>
<path style=" stroke:none;fill-rule:nonzero;fill:rgb(47.45098%,47.45098%,61.176471%);fill-opacity:1;" d="M 265.785156 99.035156 L 265.785156 101.210938 L 267.960938 101.210938 L 267.960938 105.566406 L 265.785156 105.566406 L 265.785156 107.742188 L 271.222656 107.742188 L 271.222656 99.035156 Z M 265.785156 99.035156 "/>
<path style=" stroke:none;fill-rule:nonzero;fill:rgb(47.45098%,47.45098%,61.176471%);fill-opacity:1;" d="M 265.785156 141.480469 L 271.222656 141.480469 L 271.222656 150.183594 L 265.785156 150.183594 Z M 265.785156 141.480469 "/>
<path style=" stroke:none;fill-rule:nonzero;fill:rgb(47.45098%,47.45098%,61.176471%);fill-opacity:1;" d="M 265.785156 127.332031 L 265.785156 129.507812 L 267.960938 129.507812 L 267.960938 133.859375 L 265.785156 133.859375 L 265.785156 136.039062 L 271.222656 136.039062 L 271.222656 127.332031 Z M 265.785156 127.332031 "/>
<path style=" stroke:none;fill-rule:nonzero;fill:rgb(47.45098%,47.45098%,61.176471%);fill-opacity:1;" d="M 265.785156 169.773438 L 271.222656 169.773438 L 271.222656 178.480469 L 265.785156 178.480469 Z M 265.785156 169.773438 "/>
<path style=" stroke:none;fill-rule:nonzero;fill:rgb(47.45098%,47.45098%,61.176471%);fill-opacity:1;" d="M 265.785156 155.625 L 265.785156 157.804688 L 267.960938 157.804688 L 267.960938 162.15625 L 265.785156 162.15625 L 265.785156 164.332031 L 271.222656 164.332031 L 271.222656 155.625 Z M 265.785156 155.625 "/>
<path style=" stroke:none;fill-rule:nonzero;fill:rgb(47.45098%,47.45098%,61.176471%);fill-opacity:1;" d="M 265.785156 198.070312 L 271.222656 198.070312 L 271.222656 206.777344 L 265.785156 206.777344 Z M 265.785156 198.070312 "/>
<path style=" stroke:none;fill-rule:nonzero;fill:rgb(47.45098%,47.45098%,61.176471%);fill-opacity:1;" d="M 275.570312 195.894531 L 281.003906 195.894531 L 281.003906 204.601562 L 275.570312 204.601562 Z M 275.570312 195.894531 "/>
<path style=" stroke:none;fill-rule:nonzero;fill:rgb(47.45098%,47.45098%,61.176471%);fill-opacity:1;" d="M 265.785156 183.921875 L 265.785156 186.097656 L 267.960938 186.097656 L 267.960938 190.453125 L 265.785156 190.453125 L 265.785156 192.628906 L 271.222656 192.628906 L 271.222656 183.921875 Z M 265.785156 183.921875 "/>
<path style=" stroke:none;fill-rule:nonzero;fill:rgb(47.45098%,47.45098%,61.176471%);fill-opacity:1;" d="M 286.441406 183.921875 L 286.441406 186.097656 L 288.613281 186.097656 L 288.613281 190.453125 L 286.441406 190.453125 L 286.441406 192.628906 L 291.875 192.628906 L 291.875 183.921875 Z M 286.441406 183.921875 "/>
<path style=" stroke:none;fill-rule:nonzero;fill:rgb(47.45098%,47.45098%,61.176471%);fill-opacity:1;" d="M 341.878906 57.679688 L 347.316406 57.679688 L 347.316406 66.386719 L 341.878906 66.386719 Z M 341.878906 57.679688 "/>
<path style=" stroke:none;fill-rule:nonzero;fill:rgb(47.45098%,47.45098%,61.176471%);fill-opacity:1;" d="M 341.878906 71.828125 L 347.316406 71.828125 L 347.316406 80.535156 L 341.878906 80.535156 Z M 341.878906 71.828125 "/>
<path style=" stroke:none;fill-rule:nonzero;fill:rgb(47.45098%,47.45098%,61.176471%);fill-opacity:1;" d="M 341.878906 113.183594 L 347.316406 113.183594 L 347.316406 121.890625 L 341.878906 121.890625 Z M 341.878906 113.183594 "/>
<path style=" stroke:none;fill-rule:nonzero;fill:rgb(47.45098%,47.45098%,61.176471%);fill-opacity:1;" d="M 341.878906 84.886719 L 341.878906 87.0625 L 344.054688 87.0625 L 344.054688 91.417969 L 341.878906 91.417969 L 341.878906 93.59375 L 347.316406 93.59375 L 347.316406 84.886719 Z M 341.878906 84.886719 "/>
<path style=" stroke:none;fill-rule:nonzero;fill:rgb(47.45098%,47.45098%,61.176471%);fill-opacity:1;" d="M 341.878906 127.332031 L 341.878906 129.507812 L 344.054688 129.507812 L 344.054688 133.859375 L 341.878906 133.859375 L 341.878906 136.039062 L 347.316406 136.039062 L 347.316406 127.332031 Z M 341.878906 127.332031 "/>
<path style=" stroke:none;fill-rule:nonzero;fill:rgb(47.45098%,47.45098%,61.176471%);fill-opacity:1;" d="M 341.878906 141.480469 L 341.878906 143.65625 L 344.054688 143.65625 L 344.054688 148.007812 L 341.878906 148.007812 L 341.878906 150.183594 L 347.316406 150.183594 L 347.316406 141.480469 Z M 341.878906 141.480469 "/>
<path style=" stroke:none;fill-rule:nonzero;fill:rgb(47.45098%,47.45098%,61.176471%);fill-opacity:1;" d="M 341.878906 97.945312 L 341.878906 100.125 L 344.054688 100.125 L 344.054688 104.476562 L 341.878906 104.476562 L 341.878906 106.652344 L 347.316406 106.652344 L 347.316406 97.945312 Z M 341.878906 97.945312 "/>
<path style=" stroke:none;fill-rule:nonzero;fill:rgb(47.45098%,47.45098%,61.176471%);fill-opacity:1;" d="M 341.878906 183.921875 L 341.878906 186.097656 L 344.054688 186.097656 L 344.054688 190.453125 L 341.878906 190.453125 L 341.878906 192.628906 L 347.316406 192.628906 L 347.316406 183.921875 Z M 341.878906 183.921875 "/>
<path style=" stroke:none;fill-rule:nonzero;fill:rgb(47.45098%,47.45098%,61.176471%);fill-opacity:1;" d="M 265.785156 226.367188 L 271.222656 226.367188 L 271.222656 235.074219 L 265.785156 235.074219 Z M 265.785156 226.367188 "/>
<path style=" stroke:none;fill-rule:nonzero;fill:rgb(47.45098%,47.45098%,61.176471%);fill-opacity:1;" d="M 275.570312 210.042969 L 281.003906 210.042969 L 281.003906 218.75 L 275.570312 218.75 Z M 275.570312 210.042969 "/>
<path style=" stroke:none;fill-rule:nonzero;fill:rgb(47.45098%,47.45098%,61.176471%);fill-opacity:1;" d="M 265.785156 263.367188 L 271.222656 263.367188 L 271.222656 272.074219 L 265.785156 272.074219 Z M 265.785156 263.367188 "/>
<path style=" stroke:none;fill-rule:nonzero;fill:rgb(47.45098%,47.45098%,61.176471%);fill-opacity:1;" d="M 275.570312 237.25 L 281.003906 237.25 L 281.003906 245.957031 L 275.570312 245.957031 Z M 275.570312 237.25 "/>
<path style=" stroke:none;fill-rule:nonzero;fill:rgb(47.45098%,47.45098%,61.176471%);fill-opacity:1;" d="M 265.785156 212.21875 L 265.785156 214.394531 L 267.960938 214.394531 L 267.960938 218.75 L 265.785156 218.75 L 265.785156 220.925781 L 271.222656 220.925781 L 271.222656 212.21875 Z M 265.785156 212.21875 "/>
<path style=" stroke:none;fill-rule:nonzero;fill:rgb(47.45098%,47.45098%,61.176471%);fill-opacity:1;" d="M 265.785156 278.605469 L 265.785156 280.78125 L 267.960938 280.78125 L 267.960938 285.132812 L 265.785156 285.132812 L 265.785156 287.3125 L 271.222656 287.3125 L 271.222656 278.605469 Z M 265.785156 278.605469 "/>
<path style=" stroke:none;fill-rule:nonzero;fill:rgb(47.45098%,47.45098%,61.176471%);fill-opacity:1;" d="M 325.574219 44.621094 L 331.007812 44.621094 L 331.007812 53.328125 L 325.574219 53.328125 Z M 325.574219 44.621094 "/>
<path style=" stroke:none;fill-rule:nonzero;fill:rgb(47.45098%,47.45098%,61.176471%);fill-opacity:1;" d="M 325.574219 113.183594 L 331.007812 113.183594 L 331.007812 121.890625 L 325.574219 121.890625 Z M 325.574219 113.183594 "/>
<path style=" stroke:none;fill-rule:nonzero;fill:rgb(47.45098%,47.45098%,61.176471%);fill-opacity:1;" d="M 325.574219 253.574219 L 333.183594 253.574219 L 333.183594 254.664062 L 325.574219 254.664062 Z M 325.574219 253.574219 "/>
<path style=" stroke:none;fill-rule:nonzero;fill:rgb(47.45098%,47.45098%,61.176471%);fill-opacity:1;" d="M 325.574219 70.738281 L 325.574219 72.917969 L 327.75 72.917969 L 327.75 77.269531 L 325.574219 77.269531 L 325.574219 79.445312 L 331.007812 79.445312 L 331.007812 70.738281 Z M 325.574219 70.738281 "/>
<path style=" stroke:none;fill-rule:nonzero;fill:rgb(47.45098%,47.45098%,61.176471%);fill-opacity:1;" d="M 325.574219 84.886719 L 325.574219 87.0625 L 327.75 87.0625 L 327.75 91.417969 L 325.574219 91.417969 L 325.574219 93.59375 L 331.007812 93.59375 L 331.007812 84.886719 Z M 325.574219 84.886719 "/>
<path style=" stroke:none;fill-rule:nonzero;fill:rgb(47.45098%,47.45098%,61.176471%);fill-opacity:1;" d="M 325.574219 99.035156 L 325.574219 101.210938 L 327.75 101.210938 L 327.75 105.566406 L 325.574219 105.566406 L 325.574219 107.742188 L 331.007812 107.742188 L 331.007812 99.035156 Z M 325.574219 99.035156 "/>
<path style=" stroke:none;fill-rule:nonzero;fill:rgb(47.45098%,47.45098%,61.176471%);fill-opacity:1;" d="M 325.574219 141.480469 L 331.007812 141.480469 L 331.007812 150.183594 L 325.574219 150.183594 Z M 325.574219 141.480469 "/>
<path style=" stroke:none;fill-rule:nonzero;fill:rgb(47.45098%,47.45098%,61.176471%);fill-opacity:1;" d="M 325.574219 127.332031 L 325.574219 129.507812 L 327.75 129.507812 L 327.75 133.859375 L 325.574219 133.859375 L 325.574219 136.039062 L 331.007812 136.039062 L 331.007812 127.332031 Z M 325.574219 127.332031 "/>
<path style=" stroke:none;fill-rule:nonzero;fill:rgb(47.45098%,47.45098%,61.176471%);fill-opacity:1;" d="M 325.574219 169.773438 L 331.007812 169.773438 L 331.007812 178.480469 L 325.574219 178.480469 Z M 325.574219 169.773438 "/>
<path style=" stroke:none;fill-rule:nonzero;fill:rgb(47.45098%,47.45098%,61.176471%);fill-opacity:1;" d="M 325.574219 155.625 L 325.574219 157.804688 L 327.75 157.804688 L 327.75 162.15625 L 325.574219 162.15625 L 325.574219 164.332031 L 331.007812 164.332031 L 331.007812 155.625 Z M 325.574219 155.625 "/>
<path style=" stroke:none;fill-rule:nonzero;fill:rgb(47.45098%,47.45098%,61.176471%);fill-opacity:1;" d="M 325.574219 198.070312 L 331.007812 198.070312 L 331.007812 206.777344 L 325.574219 206.777344 Z M 325.574219 198.070312 "/>
<path style=" stroke:none;fill-rule:nonzero;fill:rgb(47.45098%,47.45098%,61.176471%);fill-opacity:1;" d="M 325.574219 183.921875 L 325.574219 186.097656 L 327.75 186.097656 L 327.75 190.453125 L 325.574219 190.453125 L 325.574219 192.628906 L 331.007812 192.628906 L 331.007812 183.921875 Z M 325.574219 183.921875 "/>
<path style=" stroke:none;fill-rule:nonzero;fill:rgb(47.45098%,47.45098%,61.176471%);fill-opacity:1;" d="M 325.574219 226.367188 L 331.007812 226.367188 L 331.007812 235.074219 L 325.574219 235.074219 Z M 325.574219 226.367188 "/>
<path style=" stroke:none;fill-rule:nonzero;fill:rgb(47.45098%,47.45098%,61.176471%);fill-opacity:1;" d="M 325.574219 263.367188 L 331.007812 263.367188 L 331.007812 272.074219 L 325.574219 272.074219 Z M 325.574219 263.367188 "/>
<path style=" stroke:none;fill-rule:nonzero;fill:rgb(47.45098%,47.45098%,61.176471%);fill-opacity:1;" d="M 325.574219 212.21875 L 325.574219 214.394531 L 327.75 214.394531 L 327.75 218.75 L 325.574219 218.75 L 325.574219 220.925781 L 331.007812 220.925781 L 331.007812 212.21875 Z M 325.574219 212.21875 "/>
<path style=" stroke:none;fill-rule:nonzero;fill:rgb(47.45098%,47.45098%,61.176471%);fill-opacity:1;" d="M 325.574219 278.605469 L 325.574219 280.78125 L 327.75 280.78125 L 327.75 285.132812 L 325.574219 285.132812 L 325.574219 287.3125 L 331.007812 287.3125 L 331.007812 278.605469 Z M 325.574219 278.605469 "/>
<path style=" stroke:none;fill-rule:nonzero;fill:rgb(47.45098%,47.45098%,61.176471%);fill-opacity:1;" d="M 351.664062 44.621094 L 357.097656 44.621094 L 357.097656 53.328125 L 351.664062 53.328125 Z M 351.664062 44.621094 "/>
<path style=" stroke:none;fill-rule:nonzero;fill:rgb(47.45098%,47.45098%,61.176471%);fill-opacity:1;" d="M 351.664062 113.183594 L 357.097656 113.183594 L 357.097656 121.890625 L 351.664062 121.890625 Z M 351.664062 113.183594 "/>
<path style=" stroke:none;fill-rule:nonzero;fill:rgb(47.45098%,47.45098%,61.176471%);fill-opacity:1;" d="M 351.664062 253.574219 L 359.273438 253.574219 L 359.273438 254.664062 L 351.664062 254.664062 Z M 351.664062 253.574219 "/>
<path style=" stroke:none;fill-rule:nonzero;fill:rgb(47.45098%,47.45098%,61.176471%);fill-opacity:1;" d="M 351.664062 70.738281 L 351.664062 72.917969 L 353.839844 72.917969 L 353.839844 77.269531 L 351.664062 77.269531 L 351.664062 79.445312 L 357.097656 79.445312 L 357.097656 70.738281 Z M 351.664062 70.738281 "/>
<path style=" stroke:none;fill-rule:nonzero;fill:rgb(47.45098%,47.45098%,61.176471%);fill-opacity:1;" d="M 351.664062 84.886719 L 351.664062 87.0625 L 353.839844 87.0625 L 353.839844 91.417969 L 351.664062 91.417969 L 351.664062 93.59375 L 357.097656 93.59375 L 357.097656 84.886719 Z M 351.664062 84.886719 "/>
<path style=" stroke:none;fill-rule:nonzero;fill:rgb(47.45098%,47.45098%,61.176471%);fill-opacity:1;" d="M 351.664062 99.035156 L 351.664062 101.210938 L 353.839844 101.210938 L 353.839844 105.566406 L 351.664062 105.566406 L 351.664062 107.742188 L 357.097656 107.742188 L 357.097656 99.035156 Z M 351.664062 99.035156 "/>
<path style=" stroke:none;fill-rule:nonzero;fill:rgb(47.45098%,47.45098%,61.176471%);fill-opacity:1;" d="M 351.664062 141.480469 L 357.097656 141.480469 L 357.097656 150.183594 L 351.664062 150.183594 Z M 351.664062 141.480469 "/>
<path style=" stroke:none;fill-rule:nonzero;fill:rgb(47.45098%,47.45098%,61.176471%);fill-opacity:1;" d="M 351.664062 127.332031 L 351.664062 129.507812 L 353.839844 129.507812 L 353.839844 133.859375 L 351.664062 133.859375 L 351.664062 136.039062 L 357.097656 136.039062 L 357.097656 127.332031 Z M 351.664062 127.332031 "/>
<path style=" stroke:none;fill-rule:nonzero;fill:rgb(47.45098%,47.45098%,61.176471%);fill-opacity:1;" d="M 351.664062 169.773438 L 357.097656 169.773438 L 357.097656 178.480469 L 351.664062 178.480469 Z M 351.664062 169.773438 "/>
<path style=" stroke:none;fill-rule:nonzero;fill:rgb(47.45098%,47.45098%,61.176471%);fill-opacity:1;" d="M 351.664062 155.625 L 351.664062 157.804688 L 353.839844 157.804688 L 353.839844 162.15625 L 351.664062 162.15625 L 351.664062 164.332031 L 357.097656 164.332031 L 357.097656 155.625 Z M 351.664062 155.625 "/>
<path style=" stroke:none;fill-rule:nonzero;fill:rgb(47.45098%,47.45098%,61.176471%);fill-opacity:1;" d="M 351.664062 198.070312 L 357.097656 198.070312 L 357.097656 206.777344 L 351.664062 206.777344 Z M 351.664062 198.070312 "/>
<path style=" stroke:none;fill-rule:nonzero;fill:rgb(47.45098%,47.45098%,61.176471%);fill-opacity:1;" d="M 351.664062 183.921875 L 351.664062 186.097656 L 353.839844 186.097656 L 353.839844 190.453125 L 351.664062 190.453125 L 351.664062 192.628906 L 357.097656 192.628906 L 357.097656 183.921875 Z M 351.664062 183.921875 "/>
<path style=" stroke:none;fill-rule:nonzero;fill:rgb(47.45098%,47.45098%,61.176471%);fill-opacity:1;" d="M 351.664062 226.367188 L 357.097656 226.367188 L 357.097656 235.074219 L 351.664062 235.074219 Z M 351.664062 226.367188 "/>
<path style=" stroke:none;fill-rule:nonzero;fill:rgb(47.45098%,47.45098%,61.176471%);fill-opacity:1;" d="M 351.664062 263.367188 L 357.097656 263.367188 L 357.097656 272.074219 L 351.664062 272.074219 Z M 351.664062 263.367188 "/>
<path style=" stroke:none;fill-rule:nonzero;fill:rgb(47.45098%,47.45098%,61.176471%);fill-opacity:1;" d="M 351.664062 212.21875 L 351.664062 214.394531 L 353.839844 214.394531 L 353.839844 218.75 L 351.664062 218.75 L 351.664062 220.925781 L 357.097656 220.925781 L 357.097656 212.21875 Z M 351.664062 212.21875 "/>
<path style=" stroke:none;fill-rule:nonzero;fill:rgb(47.45098%,47.45098%,61.176471%);fill-opacity:1;" d="M 351.664062 278.605469 L 351.664062 280.78125 L 353.839844 280.78125 L 353.839844 285.132812 L 351.664062 285.132812 L 351.664062 287.3125 L 357.097656 287.3125 L 357.097656 278.605469 Z M 351.664062 278.605469 "/>
<path style=" stroke:none;fill-rule:nonzero;fill:rgb(47.45098%,47.45098%,61.176471%);fill-opacity:1;" d="M 275.570312 263.367188 L 275.570312 265.546875 L 277.742188 265.546875 L 277.742188 269.898438 L 275.570312 269.898438 L 275.570312 272.074219 L 281.003906 272.074219 L 281.003906 263.367188 Z M 275.570312 263.367188 "/>
<path style=" stroke:none;fill-rule:nonzero;fill:rgb(47.45098%,47.45098%,61.176471%);fill-opacity:1;" d="M 275.570312 277.515625 L 275.570312 279.691406 L 277.742188 279.691406 L 277.742188 284.046875 L 275.570312 284.046875 L 275.570312 286.222656 L 281.003906 286.222656 L 281.003906 277.515625 Z M 275.570312 277.515625 "/>
<path style=" stroke:none;fill-rule:nonzero;fill:rgb(47.45098%,47.45098%,61.176471%);fill-opacity:1;" d="M 247.304688 113.183594 L 247.304688 115.359375 L 249.480469 115.359375 L 249.480469 119.714844 L 247.304688 119.714844 L 247.304688 121.890625 L 252.742188 121.890625 L 252.742188 113.183594 Z M 247.304688 113.183594 "/>
<path style=" stroke:none;fill-rule:nonzero;fill:rgb(47.45098%,47.45098%,61.176471%);fill-opacity:1;" d="M 247.304688 168.6875 L 247.304688 170.863281 L 249.480469 170.863281 L 249.480469 175.214844 L 247.304688 175.214844 L 247.304688 177.394531 L 252.742188 177.394531 L 252.742188 168.6875 Z M 247.304688 168.6875 "/>
<path style=" stroke:none;fill-rule:nonzero;fill:rgb(47.45098%,47.45098%,61.176471%);fill-opacity:1;" d="M 247.304688 182.835938 L 247.304688 185.011719 L 249.480469 185.011719 L 249.480469 189.363281 L 247.304688 189.363281 L 247.304688 191.539062 L 252.742188 191.539062 L 252.742188 182.835938 Z M 247.304688 182.835938 "/>
<path style=" stroke:none;fill-rule:nonzero;fill:rgb(47.45098%,47.45098%,61.176471%);fill-opacity:1;" d="M 247.304688 211.128906 L 247.304688 213.308594 L 249.480469 213.308594 L 249.480469 217.660156 L 247.304688 217.660156 L 247.304688 219.835938 L 252.742188 219.835938 L 252.742188 211.128906 Z M 247.304688 211.128906 "/>
<path style=" stroke:none;fill-rule:nonzero;fill:rgb(47.45098%,47.45098%,61.176471%);fill-opacity:1;" d="M 247.304688 251.398438 L 247.304688 253.574219 L 249.480469 253.574219 L 249.480469 257.925781 L 247.304688 257.925781 L 247.304688 260.105469 L 252.742188 260.105469 L 252.742188 251.398438 Z M 247.304688 251.398438 "/>
<path style=" stroke:none;fill-rule:nonzero;fill:rgb(47.45098%,47.45098%,61.176471%);fill-opacity:1;" d="M 247.304688 263.367188 L 247.304688 265.546875 L 249.480469 265.546875 L 249.480469 269.898438 L 247.304688 269.898438 L 247.304688 272.074219 L 252.742188 272.074219 L 252.742188 263.367188 Z M 247.304688 263.367188 "/>
<path style=" stroke:none;fill-rule:nonzero;fill:rgb(47.45098%,47.45098%,61.176471%);fill-opacity:1;" d="M 303.832031 46.796875 L 309.269531 46.796875 L 309.269531 55.503906 L 303.832031 55.503906 Z M 303.832031 46.796875 "/>
<path style=" stroke:none;fill-rule:nonzero;fill:rgb(47.45098%,47.45098%,61.176471%);fill-opacity:1;" d="M 303.832031 60.945312 L 309.269531 60.945312 L 309.269531 69.652344 L 303.832031 69.652344 Z M 303.832031 60.945312 "/>
<path style=" stroke:none;fill-rule:nonzero;fill:rgb(47.45098%,47.45098%,61.176471%);fill-opacity:1;" d="M 301.660156 76.179688 L 309.269531 76.179688 L 309.269531 77.269531 L 301.660156 77.269531 Z M 301.660156 76.179688 "/>
<path style=" stroke:none;fill-rule:nonzero;fill:rgb(47.45098%,47.45098%,61.176471%);fill-opacity:1;" d="M 301.660156 145.832031 L 309.269531 145.832031 L 309.269531 146.921875 L 301.660156 146.921875 Z M 301.660156 145.832031 "/>
<path style=" stroke:none;fill-rule:nonzero;fill:rgb(47.45098%,47.45098%,61.176471%);fill-opacity:1;" d="M 301.660156 157.804688 L 309.269531 157.804688 L 309.269531 158.890625 L 301.660156 158.890625 Z M 301.660156 157.804688 "/>
<path style=" stroke:none;fill-rule:nonzero;fill:rgb(47.45098%,47.45098%,61.176471%);fill-opacity:1;" d="M 303.832031 85.976562 L 303.832031 88.152344 L 306.007812 88.152344 L 306.007812 92.503906 L 303.832031 92.503906 L 303.832031 94.683594 L 309.269531 94.683594 L 309.269531 85.976562 Z M 303.832031 85.976562 "/>
<path style=" stroke:none;fill-rule:nonzero;fill:rgb(47.45098%,47.45098%,61.176471%);fill-opacity:1;" d="M 303.832031 113.183594 L 303.832031 115.359375 L 306.007812 115.359375 L 306.007812 119.714844 L 303.832031 119.714844 L 303.832031 121.890625 L 309.269531 121.890625 L 309.269531 113.183594 Z M 303.832031 113.183594 "/>
<path style=" stroke:none;fill-rule:nonzero;fill:rgb(47.45098%,47.45098%,61.176471%);fill-opacity:1;" d="M 303.832031 168.6875 L 303.832031 170.863281 L 306.007812 170.863281 L 306.007812 175.214844 L 303.832031 175.214844 L 303.832031 177.394531 L 309.269531 177.394531 L 309.269531 168.6875 Z M 303.832031 168.6875 "/>
<path style=" stroke:none;fill-rule:nonzero;fill:rgb(47.45098%,47.45098%,61.176471%);fill-opacity:1;" d="M 365.796875 141.480469 L 371.230469 141.480469 L 371.230469 150.183594 L 365.796875 150.183594 Z M 365.796875 141.480469 "/>
<path style=" stroke:none;fill-rule:nonzero;fill:rgb(47.45098%,47.45098%,61.176471%);fill-opacity:1;" d="M 365.796875 155.625 L 371.230469 155.625 L 371.230469 164.332031 L 365.796875 164.332031 Z M 365.796875 155.625 "/>
<path style=" stroke:none;fill-rule:nonzero;fill:rgb(47.45098%,47.45098%,61.176471%);fill-opacity:1;" d="M 363.621094 170.863281 L 371.230469 170.863281 L 371.230469 171.953125 L 363.621094 171.953125 Z M 363.621094 170.863281 "/>
<path style=" stroke:none;fill-rule:nonzero;fill:rgb(47.45098%,47.45098%,61.176471%);fill-opacity:1;" d="M 363.621094 240.515625 L 371.230469 240.515625 L 371.230469 241.601562 L 363.621094 241.601562 Z M 363.621094 240.515625 "/>
<path style=" stroke:none;fill-rule:nonzero;fill:rgb(47.45098%,47.45098%,61.176471%);fill-opacity:1;" d="M 363.621094 252.484375 L 371.230469 252.484375 L 371.230469 253.574219 L 363.621094 253.574219 Z M 363.621094 252.484375 "/>
<path style=" stroke:none;fill-rule:nonzero;fill:rgb(47.45098%,47.45098%,61.176471%);fill-opacity:1;" d="M 365.796875 180.65625 L 365.796875 182.835938 L 367.96875 182.835938 L 367.96875 187.1875 L 365.796875 187.1875 L 365.796875 189.363281 L 371.230469 189.363281 L 371.230469 180.65625 Z M 365.796875 180.65625 "/>
<path style=" stroke:none;fill-rule:nonzero;fill:rgb(47.45098%,47.45098%,61.176471%);fill-opacity:1;" d="M 365.796875 207.867188 L 365.796875 210.042969 L 367.96875 210.042969 L 367.96875 214.394531 L 365.796875 214.394531 L 365.796875 216.570312 L 371.230469 216.570312 L 371.230469 207.867188 Z M 365.796875 207.867188 "/>
<path style=" stroke:none;fill-rule:nonzero;fill:rgb(47.45098%,47.45098%,61.176471%);fill-opacity:1;" d="M 365.796875 263.367188 L 365.796875 265.546875 L 367.96875 265.546875 L 367.96875 269.898438 L 365.796875 269.898438 L 365.796875 272.074219 L 371.230469 272.074219 L 371.230469 263.367188 Z M 365.796875 263.367188 "/>
<path style=" stroke:none;fill-rule:nonzero;fill:rgb(47.45098%,47.45098%,61.176471%);fill-opacity:1;" d="M 383.1875 46.796875 L 388.625 46.796875 L 388.625 55.503906 L 383.1875 55.503906 Z M 383.1875 46.796875 "/>
<path style=" stroke:none;fill-rule:nonzero;fill:rgb(47.45098%,47.45098%,61.176471%);fill-opacity:1;" d="M 401.667969 44.621094 L 407.105469 44.621094 L 407.105469 53.328125 L 401.667969 53.328125 Z M 401.667969 44.621094 "/>
<path style=" stroke:none;fill-rule:nonzero;fill:rgb(47.45098%,47.45098%,61.176471%);fill-opacity:1;" d="M 411.453125 44.621094 L 416.886719 44.621094 L 416.886719 53.328125 L 411.453125 53.328125 Z M 411.453125 44.621094 "/>
<path style=" stroke:none;fill-rule:nonzero;fill:rgb(47.45098%,47.45098%,61.176471%);fill-opacity:1;" d="M 411.453125 70.738281 L 416.886719 70.738281 L 416.886719 79.445312 L 411.453125 79.445312 Z M 411.453125 70.738281 "/>
<path style=" stroke:none;fill-rule:nonzero;fill:rgb(47.45098%,47.45098%,61.176471%);fill-opacity:1;" d="M 422.324219 57.679688 L 427.757812 57.679688 L 427.757812 66.386719 L 422.324219 66.386719 Z M 422.324219 57.679688 "/>
<path style=" stroke:none;fill-rule:nonzero;fill:rgb(47.45098%,47.45098%,61.176471%);fill-opacity:1;" d="M 422.324219 71.828125 L 427.757812 71.828125 L 427.757812 80.535156 L 422.324219 80.535156 Z M 422.324219 71.828125 "/>
<path style=" stroke:none;fill-rule:nonzero;fill:rgb(47.45098%,47.45098%,61.176471%);fill-opacity:1;" d="M 411.453125 99.035156 L 416.886719 99.035156 L 416.886719 107.742188 L 411.453125 107.742188 Z M 411.453125 99.035156 "/>
<path style=" stroke:none;fill-rule:nonzero;fill:rgb(47.45098%,47.45098%,61.176471%);fill-opacity:1;" d="M 422.324219 113.183594 L 427.757812 113.183594 L 427.757812 121.890625 L 422.324219 121.890625 Z M 422.324219 113.183594 "/>
<path style=" stroke:none;fill-rule:nonzero;fill:rgb(47.45098%,47.45098%,61.176471%);fill-opacity:1;" d="M 411.453125 166.511719 L 416.886719 166.511719 L 416.886719 175.214844 L 411.453125 175.214844 Z M 411.453125 166.511719 "/>
<path style=" stroke:none;fill-rule:nonzero;fill:rgb(47.45098%,47.45098%,61.176471%);fill-opacity:1;" d="M 401.667969 113.183594 L 407.105469 113.183594 L 407.105469 121.890625 L 401.667969 121.890625 Z M 401.667969 113.183594 "/>
<path style=" stroke:none;fill-rule:nonzero;fill:rgb(47.45098%,47.45098%,61.176471%);fill-opacity:1;" d="M 383.1875 60.945312 L 388.625 60.945312 L 388.625 69.652344 L 383.1875 69.652344 Z M 383.1875 60.945312 "/>
<path style=" stroke:none;fill-rule:nonzero;fill:rgb(47.45098%,47.45098%,61.176471%);fill-opacity:1;" d="M 383.1875 196.980469 L 388.625 196.980469 L 388.625 205.6875 L 383.1875 205.6875 Z M 383.1875 196.980469 "/>
<path style=" stroke:none;fill-rule:nonzero;fill:rgb(47.45098%,47.45098%,61.176471%);fill-opacity:1;" d="M 383.1875 225.277344 L 388.625 225.277344 L 388.625 233.984375 L 383.1875 233.984375 Z M 383.1875 225.277344 "/>
<path style=" stroke:none;fill-rule:nonzero;fill:rgb(47.45098%,47.45098%,61.176471%);fill-opacity:1;" d="M 383.1875 239.425781 L 388.625 239.425781 L 388.625 248.132812 L 383.1875 248.132812 Z M 383.1875 239.425781 "/>
<path style=" stroke:none;fill-rule:nonzero;fill:rgb(47.45098%,47.45098%,61.176471%);fill-opacity:1;" d="M 381.015625 76.179688 L 388.625 76.179688 L 388.625 77.269531 L 381.015625 77.269531 Z M 381.015625 76.179688 "/>
<path style=" stroke:none;fill-rule:nonzero;fill:rgb(47.45098%,47.45098%,61.176471%);fill-opacity:1;" d="M 410.363281 89.242188 L 417.972656 89.242188 L 417.972656 90.328125 L 410.363281 90.328125 Z M 410.363281 89.242188 "/>
<path style=" stroke:none;fill-rule:nonzero;fill:rgb(47.45098%,47.45098%,61.176471%);fill-opacity:1;" d="M 381.015625 145.832031 L 388.625 145.832031 L 388.625 146.921875 L 381.015625 146.921875 Z M 381.015625 145.832031 "/>
<path style=" stroke:none;fill-rule:nonzero;fill:rgb(47.45098%,47.45098%,61.176471%);fill-opacity:1;" d="M 381.015625 157.804688 L 388.625 157.804688 L 388.625 158.890625 L 381.015625 158.890625 Z M 381.015625 157.804688 "/>
<path style=" stroke:none;fill-rule:nonzero;fill:rgb(47.45098%,47.45098%,61.176471%);fill-opacity:1;" d="M 410.363281 227.453125 L 417.972656 227.453125 L 417.972656 228.542969 L 410.363281 228.542969 Z M 410.363281 227.453125 "/>
<path style=" stroke:none;fill-rule:nonzero;fill:rgb(47.45098%,47.45098%,61.176471%);fill-opacity:1;" d="M 401.667969 253.574219 L 409.277344 253.574219 L 409.277344 254.664062 L 401.667969 254.664062 Z M 401.667969 253.574219 "/>
<path style=" stroke:none;fill-rule:nonzero;fill:rgb(47.45098%,47.45098%,61.176471%);fill-opacity:1;" d="M 383.1875 85.976562 L 383.1875 88.152344 L 385.363281 88.152344 L 385.363281 92.503906 L 383.1875 92.503906 L 383.1875 94.683594 L 388.625 94.683594 L 388.625 85.976562 Z M 383.1875 85.976562 "/>
<path style=" stroke:none;fill-rule:nonzero;fill:rgb(47.45098%,47.45098%,61.176471%);fill-opacity:1;" d="M 401.667969 70.738281 L 401.667969 72.917969 L 403.84375 72.917969 L 403.84375 77.269531 L 401.667969 77.269531 L 401.667969 79.445312 L 407.105469 79.445312 L 407.105469 70.738281 Z M 401.667969 70.738281 "/>
<path style=" stroke:none;fill-rule:nonzero;fill:rgb(47.45098%,47.45098%,61.176471%);fill-opacity:1;" d="M 422.324219 84.886719 L 422.324219 87.0625 L 424.496094 87.0625 L 424.496094 91.417969 L 422.324219 91.417969 L 422.324219 93.59375 L 427.757812 93.59375 L 427.757812 84.886719 Z M 422.324219 84.886719 "/>
<path style=" stroke:none;fill-rule:nonzero;fill:rgb(47.45098%,47.45098%,61.176471%);fill-opacity:1;" d="M 422.324219 127.332031 L 422.324219 129.507812 L 424.496094 129.507812 L 424.496094 133.859375 L 422.324219 133.859375 L 422.324219 136.039062 L 427.757812 136.039062 L 427.757812 127.332031 Z M 422.324219 127.332031 "/>
<path style=" stroke:none;fill-rule:nonzero;fill:rgb(47.45098%,47.45098%,61.176471%);fill-opacity:1;" d="M 422.324219 141.480469 L 422.324219 143.65625 L 424.496094 143.65625 L 424.496094 148.007812 L 422.324219 148.007812 L 422.324219 150.183594 L 427.757812 150.183594 L 427.757812 141.480469 Z M 422.324219 141.480469 "/>
<path style=" stroke:none;fill-rule:nonzero;fill:rgb(47.45098%,47.45098%,61.176471%);fill-opacity:1;" d="M 422.324219 97.945312 L 422.324219 100.125 L 424.496094 100.125 L 424.496094 104.476562 L 422.324219 104.476562 L 422.324219 106.652344 L 427.757812 106.652344 L 427.757812 97.945312 Z M 422.324219 97.945312 "/>
<path style=" stroke:none;fill-rule:nonzero;fill:rgb(47.45098%,47.45098%,61.176471%);fill-opacity:1;" d="M 411.453125 57.679688 L 411.453125 59.855469 L 413.625 59.855469 L 413.625 64.210938 L 411.453125 64.210938 L 411.453125 66.386719 L 416.886719 66.386719 L 416.886719 57.679688 Z M 411.453125 57.679688 "/>
<path style=" stroke:none;fill-rule:nonzero;fill:rgb(47.45098%,47.45098%,61.176471%);fill-opacity:1;" d="M 411.453125 127.332031 L 416.886719 127.332031 L 416.886719 136.039062 L 411.453125 136.039062 Z M 411.453125 127.332031 "/>
<path style=" stroke:none;fill-rule:nonzero;fill:rgb(47.45098%,47.45098%,61.176471%);fill-opacity:1;" d="M 411.453125 153.449219 L 416.886719 153.449219 L 416.886719 162.15625 L 411.453125 162.15625 Z M 411.453125 153.449219 "/>
<path style=" stroke:none;fill-rule:nonzero;fill:rgb(47.45098%,47.45098%,61.176471%);fill-opacity:1;" d="M 411.453125 140.390625 L 411.453125 142.566406 L 413.625 142.566406 L 413.625 146.921875 L 411.453125 146.921875 L 411.453125 149.097656 L 416.886719 149.097656 L 416.886719 140.390625 Z M 411.453125 140.390625 "/>
<path style=" stroke:none;fill-rule:nonzero;fill:rgb(47.45098%,47.45098%,61.176471%);fill-opacity:1;" d="M 401.667969 84.886719 L 401.667969 87.0625 L 403.84375 87.0625 L 403.84375 91.417969 L 401.667969 91.417969 L 401.667969 93.59375 L 407.105469 93.59375 L 407.105469 84.886719 Z M 401.667969 84.886719 "/>
<path style=" stroke:none;fill-rule:nonzero;fill:rgb(47.45098%,47.45098%,61.176471%);fill-opacity:1;" d="M 401.667969 99.035156 L 401.667969 101.210938 L 403.84375 101.210938 L 403.84375 105.566406 L 401.667969 105.566406 L 401.667969 107.742188 L 407.105469 107.742188 L 407.105469 99.035156 Z M 401.667969 99.035156 "/>
<path style=" stroke:none;fill-rule:nonzero;fill:rgb(47.45098%,47.45098%,61.176471%);fill-opacity:1;" d="M 401.667969 141.480469 L 407.105469 141.480469 L 407.105469 150.183594 L 401.667969 150.183594 Z M 401.667969 141.480469 "/>
<path style=" stroke:none;fill-rule:nonzero;fill:rgb(47.45098%,47.45098%,61.176471%);fill-opacity:1;" d="M 401.667969 127.332031 L 401.667969 129.507812 L 403.84375 129.507812 L 403.84375 133.859375 L 401.667969 133.859375 L 401.667969 136.039062 L 407.105469 136.039062 L 407.105469 127.332031 Z M 401.667969 127.332031 "/>
<path style=" stroke:none;fill-rule:nonzero;fill:rgb(47.45098%,47.45098%,61.176471%);fill-opacity:1;" d="M 401.667969 169.773438 L 407.105469 169.773438 L 407.105469 178.480469 L 401.667969 178.480469 Z M 401.667969 169.773438 "/>
<path style=" stroke:none;fill-rule:nonzero;fill:rgb(47.45098%,47.45098%,61.176471%);fill-opacity:1;" d="M 401.667969 155.625 L 401.667969 157.804688 L 403.84375 157.804688 L 403.84375 162.15625 L 401.667969 162.15625 L 401.667969 164.332031 L 407.105469 164.332031 L 407.105469 155.625 Z M 401.667969 155.625 "/>
<path style=" stroke:none;fill-rule:nonzero;fill:rgb(47.45098%,47.45098%,61.176471%);fill-opacity:1;" d="M 401.667969 198.070312 L 407.105469 198.070312 L 407.105469 206.777344 L 401.667969 206.777344 Z M 401.667969 198.070312 "/>
<path style=" stroke:none;fill-rule:nonzero;fill:rgb(47.45098%,47.45098%,61.176471%);fill-opacity:1;" d="M 411.453125 195.894531 L 416.886719 195.894531 L 416.886719 204.601562 L 411.453125 204.601562 Z M 411.453125 195.894531 "/>
<path style=" stroke:none;fill-rule:nonzero;fill:rgb(47.45098%,47.45098%,61.176471%);fill-opacity:1;" d="M 401.667969 183.921875 L 401.667969 186.097656 L 403.84375 186.097656 L 403.84375 190.453125 L 401.667969 190.453125 L 401.667969 192.628906 L 407.105469 192.628906 L 407.105469 183.921875 Z M 401.667969 183.921875 "/>
<path style=" stroke:none;fill-rule:nonzero;fill:rgb(47.45098%,47.45098%,61.176471%);fill-opacity:1;" d="M 422.324219 183.921875 L 422.324219 186.097656 L 424.496094 186.097656 L 424.496094 190.453125 L 422.324219 190.453125 L 422.324219 192.628906 L 427.757812 192.628906 L 427.757812 183.921875 Z M 422.324219 183.921875 "/>
<path style=" stroke:none;fill-rule:nonzero;fill:rgb(47.45098%,47.45098%,61.176471%);fill-opacity:1;" d="M 477.761719 57.679688 L 483.199219 57.679688 L 483.199219 66.386719 L 477.761719 66.386719 Z M 477.761719 57.679688 "/>
<path style=" stroke:none;fill-rule:nonzero;fill:rgb(47.45098%,47.45098%,61.176471%);fill-opacity:1;" d="M 477.761719 71.828125 L 483.199219 71.828125 L 483.199219 80.535156 L 477.761719 80.535156 Z M 477.761719 71.828125 "/>
<path style=" stroke:none;fill-rule:nonzero;fill:rgb(47.45098%,47.45098%,61.176471%);fill-opacity:1;" d="M 477.761719 113.183594 L 483.199219 113.183594 L 483.199219 121.890625 L 477.761719 121.890625 Z M 477.761719 113.183594 "/>
<path style=" stroke:none;fill-rule:nonzero;fill:rgb(47.45098%,47.45098%,61.176471%);fill-opacity:1;" d="M 477.761719 84.886719 L 477.761719 87.0625 L 479.9375 87.0625 L 479.9375 91.417969 L 477.761719 91.417969 L 477.761719 93.59375 L 483.199219 93.59375 L 483.199219 84.886719 Z M 477.761719 84.886719 "/>
<path style=" stroke:none;fill-rule:nonzero;fill:rgb(47.45098%,47.45098%,61.176471%);fill-opacity:1;" d="M 477.761719 127.332031 L 477.761719 129.507812 L 479.9375 129.507812 L 479.9375 133.859375 L 477.761719 133.859375 L 477.761719 136.039062 L 483.199219 136.039062 L 483.199219 127.332031 Z M 477.761719 127.332031 "/>
<path style=" stroke:none;fill-rule:nonzero;fill:rgb(47.45098%,47.45098%,61.176471%);fill-opacity:1;" d="M 477.761719 141.480469 L 477.761719 143.65625 L 479.9375 143.65625 L 479.9375 148.007812 L 477.761719 148.007812 L 477.761719 150.183594 L 483.199219 150.183594 L 483.199219 141.480469 Z M 477.761719 141.480469 "/>
<path style=" stroke:none;fill-rule:nonzero;fill:rgb(47.45098%,47.45098%,61.176471%);fill-opacity:1;" d="M 477.761719 97.945312 L 477.761719 100.125 L 479.9375 100.125 L 479.9375 104.476562 L 477.761719 104.476562 L 477.761719 106.652344 L 483.199219 106.652344 L 483.199219 97.945312 Z M 477.761719 97.945312 "/>
<path style=" stroke:none;fill-rule:nonzero;fill:rgb(47.45098%,47.45098%,61.176471%);fill-opacity:1;" d="M 477.761719 183.921875 L 477.761719 186.097656 L 479.9375 186.097656 L 479.9375 190.453125 L 477.761719 190.453125 L 477.761719 192.628906 L 483.199219 192.628906 L 483.199219 183.921875 Z M 477.761719 183.921875 "/>
<path style=" stroke:none;fill-rule:nonzero;fill:rgb(47.45098%,47.45098%,61.176471%);fill-opacity:1;" d="M 401.667969 226.367188 L 407.105469 226.367188 L 407.105469 235.074219 L 401.667969 235.074219 Z M 401.667969 226.367188 "/>
<path style=" stroke:none;fill-rule:nonzero;fill:rgb(47.45098%,47.45098%,61.176471%);fill-opacity:1;" d="M 411.453125 210.042969 L 416.886719 210.042969 L 416.886719 218.75 L 411.453125 218.75 Z M 411.453125 210.042969 "/>
<path style=" stroke:none;fill-rule:nonzero;fill:rgb(47.45098%,47.45098%,61.176471%);fill-opacity:1;" d="M 401.667969 263.367188 L 407.105469 263.367188 L 407.105469 272.074219 L 401.667969 272.074219 Z M 401.667969 263.367188 "/>
<path style=" stroke:none;fill-rule:nonzero;fill:rgb(47.45098%,47.45098%,61.176471%);fill-opacity:1;" d="M 411.453125 237.25 L 416.886719 237.25 L 416.886719 245.957031 L 411.453125 245.957031 Z M 411.453125 237.25 "/>
<path style=" stroke:none;fill-rule:nonzero;fill:rgb(47.45098%,47.45098%,61.176471%);fill-opacity:1;" d="M 401.667969 212.21875 L 401.667969 214.394531 L 403.84375 214.394531 L 403.84375 218.75 L 401.667969 218.75 L 401.667969 220.925781 L 407.105469 220.925781 L 407.105469 212.21875 Z M 401.667969 212.21875 "/>
<path style=" stroke:none;fill-rule:nonzero;fill:rgb(47.45098%,47.45098%,61.176471%);fill-opacity:1;" d="M 401.667969 278.605469 L 401.667969 280.78125 L 403.84375 280.78125 L 403.84375 285.132812 L 401.667969 285.132812 L 401.667969 287.3125 L 407.105469 287.3125 L 407.105469 278.605469 Z M 401.667969 278.605469 "/>
<path style=" stroke:none;fill-rule:nonzero;fill:rgb(47.45098%,47.45098%,61.176471%);fill-opacity:1;" d="M 461.457031 44.621094 L 466.890625 44.621094 L 466.890625 53.328125 L 461.457031 53.328125 Z M 461.457031 44.621094 "/>
<path style=" stroke:none;fill-rule:nonzero;fill:rgb(47.45098%,47.45098%,61.176471%);fill-opacity:1;" d="M 461.457031 113.183594 L 466.890625 113.183594 L 466.890625 121.890625 L 461.457031 121.890625 Z M 461.457031 113.183594 "/>
<path style=" stroke:none;fill-rule:nonzero;fill:rgb(47.45098%,47.45098%,61.176471%);fill-opacity:1;" d="M 461.457031 253.574219 L 469.066406 253.574219 L 469.066406 254.664062 L 461.457031 254.664062 Z M 461.457031 253.574219 "/>
<path style=" stroke:none;fill-rule:nonzero;fill:rgb(47.45098%,47.45098%,61.176471%);fill-opacity:1;" d="M 461.457031 70.738281 L 461.457031 72.917969 L 463.632812 72.917969 L 463.632812 77.269531 L 461.457031 77.269531 L 461.457031 79.445312 L 466.890625 79.445312 L 466.890625 70.738281 Z M 461.457031 70.738281 "/>
<path style=" stroke:none;fill-rule:nonzero;fill:rgb(47.45098%,47.45098%,61.176471%);fill-opacity:1;" d="M 461.457031 84.886719 L 461.457031 87.0625 L 463.632812 87.0625 L 463.632812 91.417969 L 461.457031 91.417969 L 461.457031 93.59375 L 466.890625 93.59375 L 466.890625 84.886719 Z M 461.457031 84.886719 "/>
<path style=" stroke:none;fill-rule:nonzero;fill:rgb(47.45098%,47.45098%,61.176471%);fill-opacity:1;" d="M 461.457031 99.035156 L 461.457031 101.210938 L 463.632812 101.210938 L 463.632812 105.566406 L 461.457031 105.566406 L 461.457031 107.742188 L 466.890625 107.742188 L 466.890625 99.035156 Z M 461.457031 99.035156 "/>
<path style=" stroke:none;fill-rule:nonzero;fill:rgb(47.45098%,47.45098%,61.176471%);fill-opacity:1;" d="M 461.457031 141.480469 L 466.890625 141.480469 L 466.890625 150.183594 L 461.457031 150.183594 Z M 461.457031 141.480469 "/>
<path style=" stroke:none;fill-rule:nonzero;fill:rgb(47.45098%,47.45098%,61.176471%);fill-opacity:1;" d="M 461.457031 127.332031 L 461.457031 129.507812 L 463.632812 129.507812 L 463.632812 133.859375 L 461.457031 133.859375 L 461.457031 136.039062 L 466.890625 136.039062 L 466.890625 127.332031 Z M 461.457031 127.332031 "/>
<path style=" stroke:none;fill-rule:nonzero;fill:rgb(47.45098%,47.45098%,61.176471%);fill-opacity:1;" d="M 461.457031 169.773438 L 466.890625 169.773438 L 466.890625 178.480469 L 461.457031 178.480469 Z M 461.457031 169.773438 "/>
<path style=" stroke:none;fill-rule:nonzero;fill:rgb(47.45098%,47.45098%,61.176471%);fill-opacity:1;" d="M 461.457031 155.625 L 461.457031 157.804688 L 463.632812 157.804688 L 463.632812 162.15625 L 461.457031 162.15625 L 461.457031 164.332031 L 466.890625 164.332031 L 466.890625 155.625 Z M 461.457031 155.625 "/>
<path style=" stroke:none;fill-rule:nonzero;fill:rgb(47.45098%,47.45098%,61.176471%);fill-opacity:1;" d="M 461.457031 198.070312 L 466.890625 198.070312 L 466.890625 206.777344 L 461.457031 206.777344 Z M 461.457031 198.070312 "/>
<path style=" stroke:none;fill-rule:nonzero;fill:rgb(47.45098%,47.45098%,61.176471%);fill-opacity:1;" d="M 461.457031 183.921875 L 461.457031 186.097656 L 463.632812 186.097656 L 463.632812 190.453125 L 461.457031 190.453125 L 461.457031 192.628906 L 466.890625 192.628906 L 466.890625 183.921875 Z M 461.457031 183.921875 "/>
<path style=" stroke:none;fill-rule:nonzero;fill:rgb(47.45098%,47.45098%,61.176471%);fill-opacity:1;" d="M 461.457031 226.367188 L 466.890625 226.367188 L 466.890625 235.074219 L 461.457031 235.074219 Z M 461.457031 226.367188 "/>
<path style=" stroke:none;fill-rule:nonzero;fill:rgb(47.45098%,47.45098%,61.176471%);fill-opacity:1;" d="M 461.457031 263.367188 L 466.890625 263.367188 L 466.890625 272.074219 L 461.457031 272.074219 Z M 461.457031 263.367188 "/>
<path style=" stroke:none;fill-rule:nonzero;fill:rgb(47.45098%,47.45098%,61.176471%);fill-opacity:1;" d="M 461.457031 212.21875 L 461.457031 214.394531 L 463.632812 214.394531 L 463.632812 218.75 L 461.457031 218.75 L 461.457031 220.925781 L 466.890625 220.925781 L 466.890625 212.21875 Z M 461.457031 212.21875 "/>
<path style=" stroke:none;fill-rule:nonzero;fill:rgb(47.45098%,47.45098%,61.176471%);fill-opacity:1;" d="M 461.457031 278.605469 L 461.457031 280.78125 L 463.632812 280.78125 L 463.632812 285.132812 L 461.457031 285.132812 L 461.457031 287.3125 L 466.890625 287.3125 L 466.890625 278.605469 Z M 461.457031 278.605469 "/>
<path style=" stroke:none;fill-rule:nonzero;fill:rgb(47.45098%,47.45098%,61.176471%);fill-opacity:1;" d="M 487.546875 44.621094 L 492.980469 44.621094 L 492.980469 53.328125 L 487.546875 53.328125 Z M 487.546875 44.621094 "/>
<path style=" stroke:none;fill-rule:nonzero;fill:rgb(47.45098%,47.45098%,61.176471%);fill-opacity:1;" d="M 487.546875 113.183594 L 492.980469 113.183594 L 492.980469 121.890625 L 487.546875 121.890625 Z M 487.546875 113.183594 "/>
<path style=" stroke:none;fill-rule:nonzero;fill:rgb(47.45098%,47.45098%,61.176471%);fill-opacity:1;" d="M 487.546875 253.574219 L 495.15625 253.574219 L 495.15625 254.664062 L 487.546875 254.664062 Z M 487.546875 253.574219 "/>
<path style=" stroke:none;fill-rule:nonzero;fill:rgb(47.45098%,47.45098%,61.176471%);fill-opacity:1;" d="M 487.546875 70.738281 L 487.546875 72.917969 L 489.71875 72.917969 L 489.71875 77.269531 L 487.546875 77.269531 L 487.546875 79.445312 L 492.980469 79.445312 L 492.980469 70.738281 Z M 487.546875 70.738281 "/>
<path style=" stroke:none;fill-rule:nonzero;fill:rgb(47.45098%,47.45098%,61.176471%);fill-opacity:1;" d="M 487.546875 84.886719 L 487.546875 87.0625 L 489.71875 87.0625 L 489.71875 91.417969 L 487.546875 91.417969 L 487.546875 93.59375 L 492.980469 93.59375 L 492.980469 84.886719 Z M 487.546875 84.886719 "/>
<path style=" stroke:none;fill-rule:nonzero;fill:rgb(47.45098%,47.45098%,61.176471%);fill-opacity:1;" d="M 487.546875 99.035156 L 487.546875 101.210938 L 489.71875 101.210938 L 489.71875 105.566406 L 487.546875 105.566406 L 487.546875 107.742188 L 492.980469 107.742188 L 492.980469 99.035156 Z M 487.546875 99.035156 "/>
<path style=" stroke:none;fill-rule:nonzero;fill:rgb(47.45098%,47.45098%,61.176471%);fill-opacity:1;" d="M 487.546875 141.480469 L 492.980469 141.480469 L 492.980469 150.183594 L 487.546875 150.183594 Z M 487.546875 141.480469 "/>
<path style=" stroke:none;fill-rule:nonzero;fill:rgb(47.45098%,47.45098%,61.176471%);fill-opacity:1;" d="M 487.546875 127.332031 L 487.546875 129.507812 L 489.71875 129.507812 L 489.71875 133.859375 L 487.546875 133.859375 L 487.546875 136.039062 L 492.980469 136.039062 L 492.980469 127.332031 Z M 487.546875 127.332031 "/>
<path style=" stroke:none;fill-rule:nonzero;fill:rgb(47.45098%,47.45098%,61.176471%);fill-opacity:1;" d="M 487.546875 169.773438 L 492.980469 169.773438 L 492.980469 178.480469 L 487.546875 178.480469 Z M 487.546875 169.773438 "/>
<path style=" stroke:none;fill-rule:nonzero;fill:rgb(47.45098%,47.45098%,61.176471%);fill-opacity:1;" d="M 487.546875 155.625 L 487.546875 157.804688 L 489.71875 157.804688 L 489.71875 162.15625 L 487.546875 162.15625 L 487.546875 164.332031 L 492.980469 164.332031 L 492.980469 155.625 Z M 487.546875 155.625 "/>
<path style=" stroke:none;fill-rule:nonzero;fill:rgb(47.45098%,47.45098%,61.176471%);fill-opacity:1;" d="M 487.546875 198.070312 L 492.980469 198.070312 L 492.980469 206.777344 L 487.546875 206.777344 Z M 487.546875 198.070312 "/>
<path style=" stroke:none;fill-rule:nonzero;fill:rgb(47.45098%,47.45098%,61.176471%);fill-opacity:1;" d="M 487.546875 183.921875 L 487.546875 186.097656 L 489.71875 186.097656 L 489.71875 190.453125 L 487.546875 190.453125 L 487.546875 192.628906 L 492.980469 192.628906 L 492.980469 183.921875 Z M 487.546875 183.921875 "/>
<path style=" stroke:none;fill-rule:nonzero;fill:rgb(47.45098%,47.45098%,61.176471%);fill-opacity:1;" d="M 487.546875 226.367188 L 492.980469 226.367188 L 492.980469 235.074219 L 487.546875 235.074219 Z M 487.546875 226.367188 "/>
<path style=" stroke:none;fill-rule:nonzero;fill:rgb(47.45098%,47.45098%,61.176471%);fill-opacity:1;" d="M 487.546875 263.367188 L 492.980469 263.367188 L 492.980469 272.074219 L 487.546875 272.074219 Z M 487.546875 263.367188 "/>
<path style=" stroke:none;fill-rule:nonzero;fill:rgb(47.45098%,47.45098%,61.176471%);fill-opacity:1;" d="M 487.546875 212.21875 L 487.546875 214.394531 L 489.71875 214.394531 L 489.71875 218.75 L 487.546875 218.75 L 487.546875 220.925781 L 492.980469 220.925781 L 492.980469 212.21875 Z M 487.546875 212.21875 "/>
<path style=" stroke:none;fill-rule:nonzero;fill:rgb(47.45098%,47.45098%,61.176471%);fill-opacity:1;" d="M 487.546875 278.605469 L 487.546875 280.78125 L 489.71875 280.78125 L 489.71875 285.132812 L 487.546875 285.132812 L 487.546875 287.3125 L 492.980469 287.3125 L 492.980469 278.605469 Z M 487.546875 278.605469 "/>
<path style=" stroke:none;fill-rule:nonzero;fill:rgb(47.45098%,47.45098%,61.176471%);fill-opacity:1;" d="M 411.453125 263.367188 L 411.453125 265.546875 L 413.625 265.546875 L 413.625 269.898438 L 411.453125 269.898438 L 411.453125 272.074219 L 416.886719 272.074219 L 416.886719 263.367188 Z M 411.453125 263.367188 "/>
<path style=" stroke:none;fill-rule:nonzero;fill:rgb(47.45098%,47.45098%,61.176471%);fill-opacity:1;" d="M 411.453125 277.515625 L 411.453125 279.691406 L 413.625 279.691406 L 413.625 284.046875 L 411.453125 284.046875 L 411.453125 286.222656 L 416.886719 286.222656 L 416.886719 277.515625 Z M 411.453125 277.515625 "/>
<path style=" stroke:none;fill-rule:nonzero;fill:rgb(47.45098%,47.45098%,61.176471%);fill-opacity:1;" d="M 383.1875 113.183594 L 383.1875 115.359375 L 385.363281 115.359375 L 385.363281 119.714844 L 383.1875 119.714844 L 383.1875 121.890625 L 388.625 121.890625 L 388.625 113.183594 Z M 383.1875 113.183594 "/>
<path style=" stroke:none;fill-rule:nonzero;fill:rgb(47.45098%,47.45098%,61.176471%);fill-opacity:1;" d="M 383.1875 168.6875 L 383.1875 170.863281 L 385.363281 170.863281 L 385.363281 175.214844 L 383.1875 175.214844 L 383.1875 177.394531 L 388.625 177.394531 L 388.625 168.6875 Z M 383.1875 168.6875 "/>
<path style=" stroke:none;fill-rule:nonzero;fill:rgb(47.45098%,47.45098%,61.176471%);fill-opacity:1;" d="M 383.1875 182.835938 L 383.1875 185.011719 L 385.363281 185.011719 L 385.363281 189.363281 L 383.1875 189.363281 L 383.1875 191.539062 L 388.625 191.539062 L 388.625 182.835938 Z M 383.1875 182.835938 "/>
<path style=" stroke:none;fill-rule:nonzero;fill:rgb(47.45098%,47.45098%,61.176471%);fill-opacity:1;" d="M 383.1875 211.128906 L 383.1875 213.308594 L 385.363281 213.308594 L 385.363281 217.660156 L 383.1875 217.660156 L 383.1875 219.835938 L 388.625 219.835938 L 388.625 211.128906 Z M 383.1875 211.128906 "/>
<path style=" stroke:none;fill-rule:nonzero;fill:rgb(47.45098%,47.45098%,61.176471%);fill-opacity:1;" d="M 383.1875 251.398438 L 383.1875 253.574219 L 385.363281 253.574219 L 385.363281 257.925781 L 383.1875 257.925781 L 383.1875 260.105469 L 388.625 260.105469 L 388.625 251.398438 Z M 383.1875 251.398438 "/>
<path style=" stroke:none;fill-rule:nonzero;fill:rgb(47.45098%,47.45098%,61.176471%);fill-opacity:1;" d="M 383.1875 263.367188 L 383.1875 265.546875 L 385.363281 265.546875 L 385.363281 269.898438 L 383.1875 269.898438 L 383.1875 272.074219 L 388.625 272.074219 L 388.625 263.367188 Z M 383.1875 263.367188 "/>
<path style=" stroke:none;fill-rule:nonzero;fill:rgb(47.45098%,47.45098%,61.176471%);fill-opacity:1;" d="M 439.714844 46.796875 L 445.152344 46.796875 L 445.152344 55.503906 L 439.714844 55.503906 Z M 439.714844 46.796875 "/>
<path style=" stroke:none;fill-rule:nonzero;fill:rgb(47.45098%,47.45098%,61.176471%);fill-opacity:1;" d="M 439.714844 60.945312 L 445.152344 60.945312 L 445.152344 69.652344 L 439.714844 69.652344 Z M 439.714844 60.945312 "/>
<path style=" stroke:none;fill-rule:nonzero;fill:rgb(47.45098%,47.45098%,61.176471%);fill-opacity:1;" d="M 437.542969 76.179688 L 445.152344 76.179688 L 445.152344 77.269531 L 437.542969 77.269531 Z M 437.542969 76.179688 "/>
<path style=" stroke:none;fill-rule:nonzero;fill:rgb(47.45098%,47.45098%,61.176471%);fill-opacity:1;" d="M 437.542969 145.832031 L 445.152344 145.832031 L 445.152344 146.921875 L 437.542969 146.921875 Z M 437.542969 145.832031 "/>
<path style=" stroke:none;fill-rule:nonzero;fill:rgb(47.45098%,47.45098%,61.176471%);fill-opacity:1;" d="M 437.542969 157.804688 L 445.152344 157.804688 L 445.152344 158.890625 L 437.542969 158.890625 Z M 437.542969 157.804688 "/>
<path style=" stroke:none;fill-rule:nonzero;fill:rgb(47.45098%,47.45098%,61.176471%);fill-opacity:1;" d="M 439.714844 85.976562 L 439.714844 88.152344 L 441.890625 88.152344 L 441.890625 92.503906 L 439.714844 92.503906 L 439.714844 94.683594 L 445.152344 94.683594 L 445.152344 85.976562 Z M 439.714844 85.976562 "/>
<path style=" stroke:none;fill-rule:nonzero;fill:rgb(47.45098%,47.45098%,61.176471%);fill-opacity:1;" d="M 439.714844 113.183594 L 439.714844 115.359375 L 441.890625 115.359375 L 441.890625 119.714844 L 439.714844 119.714844 L 439.714844 121.890625 L 445.152344 121.890625 L 445.152344 113.183594 Z M 439.714844 113.183594 "/>
<path style=" stroke:none;fill-rule:nonzero;fill:rgb(47.45098%,47.45098%,61.176471%);fill-opacity:1;" d="M 439.714844 168.6875 L 439.714844 170.863281 L 441.890625 170.863281 L 441.890625 175.214844 L 439.714844 175.214844 L 439.714844 177.394531 L 445.152344 177.394531 L 445.152344 168.6875 Z M 439.714844 168.6875 "/>
<path style=" stroke:none;fill-rule:nonzero;fill:rgb(47.45098%,47.45098%,61.176471%);fill-opacity:1;" d="M 501.679688 141.480469 L 507.113281 141.480469 L 507.113281 150.183594 L 501.679688 150.183594 Z M 501.679688 141.480469 "/>
<path style=" stroke:none;fill-rule:nonzero;fill:rgb(47.45098%,47.45098%,61.176471%);fill-opacity:1;" d="M 501.679688 155.625 L 507.113281 155.625 L 507.113281 164.332031 L 501.679688 164.332031 Z M 501.679688 155.625 "/>
<path style=" stroke:none;fill-rule:nonzero;fill:rgb(47.45098%,47.45098%,61.176471%);fill-opacity:1;" d="M 499.503906 170.863281 L 507.113281 170.863281 L 507.113281 171.953125 L 499.503906 171.953125 Z M 499.503906 170.863281 "/>
<path style=" stroke:none;fill-rule:nonzero;fill:rgb(47.45098%,47.45098%,61.176471%);fill-opacity:1;" d="M 499.503906 240.515625 L 507.113281 240.515625 L 507.113281 241.601562 L 499.503906 241.601562 Z M 499.503906 240.515625 "/>
<path style=" stroke:none;fill-rule:nonzero;fill:rgb(47.45098%,47.45098%,61.176471%);fill-opacity:1;" d="M 499.503906 252.484375 L 507.113281 252.484375 L 507.113281 253.574219 L 499.503906 253.574219 Z M 499.503906 252.484375 "/>
<path style=" stroke:none;fill-rule:nonzero;fill:rgb(47.45098%,47.45098%,61.176471%);fill-opacity:1;" d="M 501.675781 180.65625 L 501.675781 182.835938 L 503.851562 182.835938 L 503.851562 187.1875 L 501.675781 187.1875 L 501.675781 189.363281 L 507.113281 189.363281 L 507.113281 180.65625 Z M 501.675781 180.65625 "/>
<path style=" stroke:none;fill-rule:nonzero;fill:rgb(47.45098%,47.45098%,61.176471%);fill-opacity:1;" d="M 501.675781 207.867188 L 501.675781 210.042969 L 503.851562 210.042969 L 503.851562 214.394531 L 501.675781 214.394531 L 501.675781 216.570312 L 507.113281 216.570312 L 507.113281 207.867188 Z M 501.675781 207.867188 "/>
<path style=" stroke:none;fill-rule:nonzero;fill:rgb(47.45098%,47.45098%,61.176471%);fill-opacity:1;" d="M 501.675781 263.367188 L 501.675781 265.546875 L 503.851562 265.546875 L 503.851562 269.898438 L 501.675781 269.898438 L 501.675781 272.074219 L 507.113281 272.074219 L 507.113281 263.367188 Z M 501.675781 263.367188 "/>
<path style=" stroke:none;fill-rule:nonzero;fill:rgb(18.431373%,18.039216%,25.490196%);fill-opacity:1;" d="M 151.050781 498.261719 L 734.027344 498.261719 L 734.027344 500.0625 L 151.050781 500.0625 Z M 151.050781 498.261719 "/>
<path style=" stroke:none;fill-rule:nonzero;fill:rgb(18.431373%,18.039216%,25.490196%);fill-opacity:1;" d="M 271.550781 285.148438 L 271.550781 321.820312 L 276.484375 344.386719 C 276.484375 344.386719 275.777344 358.492188 276.484375 362.722656 C 277.1875 366.953125 275.777344 374.003906 271.550781 374.003906 C 267.324219 374.003906 265.210938 384.582031 265.210938 384.582031 C 265.210938 384.582031 263.804688 388.816406 260.28125 389.519531 C 256.757812 390.226562 256.757812 389.519531 256.757812 389.519531 L 253.941406 396.574219 L 195.476562 435.359375 L 206.746094 463.566406 C 206.746094 463.566406 224.355469 457.222656 225.765625 455.105469 C 227.171875 452.988281 239.148438 457.925781 239.148438 452.988281 C 239.148438 448.054688 241.261719 435.359375 245.488281 434.652344 C 249.714844 433.949219 284.9375 417.730469 284.9375 417.730469 C 284.9375 417.730469 303.25 397.277344 304.660156 389.519531 C 306.066406 381.761719 312.40625 359.902344 312.40625 359.902344 L 330.019531 389.519531 L 330.019531 448.757812 L 327.199219 480.492188 L 358.195312 476.261719 C 358.195312 476.261719 355.378906 456.515625 358.195312 453.695312 C 361.011719 450.875 365.238281 417.023438 362.421875 412.792969 C 359.605469 408.5625 363.832031 389.519531 362.421875 386.699219 C 361.011719 383.878906 361.71875 363.425781 358.195312 357.785156 C 354.671875 352.144531 333.539062 294.316406 333.539062 294.316406 Z M 271.550781 285.148438 "/>
<path style=" stroke:none;fill-rule:nonzero;fill:rgb(18.431373%,18.039216%,25.490196%);fill-opacity:1;" d="M 331.425781 479.082031 C 331.425781 479.082031 320.859375 496.714844 327.90625 498.828125 C 334.949219 500.945312 348.332031 498.828125 349.742188 498.828125 C 351.152344 498.828125 376.507812 499.535156 376.507812 499.535156 C 376.507812 499.535156 393.414062 496.007812 393.414062 491.070312 C 393.414062 486.136719 382.847656 486.136719 379.328125 485.429688 C 375.804688 484.726562 353.96875 476.261719 353.96875 476.261719 Z M 331.425781 479.082031 "/>
<path style=" stroke:none;fill-rule:nonzero;fill:rgb(18.431373%,18.039216%,25.490196%);fill-opacity:1;" d="M 198.710938 436.15625 C 198.710938 436.15625 178.351562 433.457031 179.210938 440.769531 C 180.070312 448.078125 187.332031 459.535156 187.890625 460.828125 C 188.269531 461.703125 192.71875 472.800781 195.550781 479.875 C 197.597656 485.058594 200.675781 489.773438 204.59375 493.734375 C 207.363281 496.503906 210.378906 498.726562 212.359375 497.867188 C 216.886719 495.90625 212.683594 486.199219 211.929688 482.683594 C 211.179688 479.164062 210.253906 455.742188 210.253906 455.742188 Z M 198.710938 436.15625 "/>
<path style=" stroke:none;fill-rule:nonzero;fill:rgb(53.72549%,52.156863%,65.882353%);fill-opacity:1;" d="M 340.230469 168.433594 L 362.773438 116.246094 C 362.773438 116.246094 360.660156 111.3125 355.730469 112.015625 C 355.730469 112.015625 349.039062 94.738281 336.359375 94.738281 C 336.359375 94.738281 317.339844 84.160156 311.703125 94.738281 C 311.703125 94.738281 299.726562 105.316406 300.433594 115.191406 C 301.136719 125.0625 301.839844 132.117188 301.839844 132.117188 C 301.839844 132.117188 290.570312 133.527344 292.683594 139.167969 C 294.796875 144.808594 295.5 144.808594 292.683594 146.925781 L 289.867188 149.039062 C 289.867188 149.039062 231.398438 201.933594 263.804688 279.507812 L 266.621094 291.496094 L 266.621094 302.777344 C 266.621094 302.777344 337.765625 303.484375 337.765625 302.777344 C 337.765625 302.074219 336.359375 297.839844 339.175781 295.019531 C 341.992188 292.199219 341.992188 287.96875 341.992188 287.96875 C 341.992188 287.96875 339.175781 273.863281 340.585938 269.632812 C 341.992188 265.402344 342.699219 247.066406 339.878906 242.835938 C 337.0625 238.601562 338.472656 204.753906 338.472656 204.753906 L 344.8125 192.765625 L 342.699219 185.710938 L 340.585938 178.660156 Z M 340.230469 168.433594 "/>
<use xlink:href="#surface5" mask="url(#mask0)"/>
<path style=" stroke:none;fill-rule:nonzero;fill:rgb(94.901961%,94.901961%,94.901961%);fill-opacity:1;" d="M 340.230469 159.972656 C 340.230469 161.140625 339.285156 162.085938 338.117188 162.085938 C 336.953125 162.085938 336.003906 161.140625 336.003906 159.972656 C 336.003906 158.804688 336.953125 157.855469 338.117188 157.855469 C 339.285156 157.855469 340.230469 158.804688 340.230469 159.972656 Z M 340.230469 159.972656 "/>
<path style=" stroke:none;fill-rule:nonzero;fill:rgb(24.705882%,23.921569%,33.72549%);fill-opacity:1;" d="M 337.414062 159.972656 L 338.824219 159.972656 L 338.824219 193.117188 L 337.414062 193.117188 Z M 337.414062 159.972656 "/>
<path style=" stroke:none;fill-rule:nonzero;fill:rgb(100%,72.156863%,72.156863%);fill-opacity:1;" d="M 312.761719 312.296875 L 318.394531 324.289062 C 318.394531 324.289062 331.074219 320.054688 331.074219 317.941406 C 331.074219 315.824219 325.441406 306.65625 325.441406 306.65625 Z M 312.761719 312.296875 "/>
<path style=" stroke:none;fill-rule:nonzero;fill:rgb(53.72549%,52.156863%,65.882353%);fill-opacity:1;" d="M 304.660156 153.273438 C 304.660156 153.273438 288.457031 160.324219 285.640625 187.828125 C 282.824219 215.332031 295.5 285.851562 301.839844 297.839844 C 308.179688 309.832031 312.40625 318.292969 312.40625 318.292969 L 331.425781 309.832031 C 331.425781 309.832031 322.972656 286.558594 323.679688 282.328125 C 324.382812 278.09375 322.269531 269.632812 322.269531 269.632812 L 319.453125 212.511719 C 319.453125 212.511719 331.425781 161.734375 304.660156 153.273438 Z M 304.660156 153.273438 "/>
</g>
</svg>
